0
SECTION
2
HEADER
9
$INSUNITS
70
4
9
$ACADVER
1
AC1014
9
$HANDSEED
5
FFFF
0
ENDSEC
0
SECTION
2
TABLES
0
TABLE
2
VPORT
5
8
100
AcDbSymbolTable
0
ENDTAB
0
TABLE
2
LTYPE
5
5
100
AcDbSymbolTable
0
LTYPE
5
14
100
AcDbSymbolTableRecord
100
AcDbLinetypeTableRecord
2
BYBLOCK
70
0
0
LTYPE
5
15
100
AcDbSymbolTableRecord
100
AcDbLinetypeTableRecord
2
BYLAYER
70
0
0
LTYPE
5
16
100
AcDbSymbolTableRecord
100
AcDbLinetypeTableRecord
2
DASHED
70
0
3
Dashed __ __ __ __ __ __ __ __ __ __ __ __ __ _
72
65
73
2
40
0.75
49
0.5
74
0
49
-0.25
74
0
0
ENDTAB
0
TABLE
2
LAYER
5
2
100
AcDbSymbolTable
70
2
0
LAYER
5
50
100
AcDbSymbolTableRecord
100
AcDbLayerTableRecord
2
0
70
0
62
7
6
CONTINUOUS
0
ENDTAB
0
TABLE
2
STYLE
5
3
100
AcDbSymbolTable
70
1
0
STYLE
5
11
100
AcDbSymbolTableRecord
100
AcDbTextStyleTableRecord
2
STANDARD
70
0
0
ENDTAB
0
TABLE
2
VIEW
5
6
100
AcDbSymbolTable
70
0
0
ENDTAB
0
TABLE
2
UCS
5
7
100
AcDbSymbolTable
70
0
0
ENDTAB
0
TABLE
2
APPID
5
9
100
AcDbSymbolTable
70
2
0
APPID
5
12
100
AcDbSymbolTableRecord
100
AcDbRegAppTableRecord
2
ACAD
70
0
0
ENDTAB
0
TABLE
2
DIMSTYLE
5
A
100
AcDbSymbolTable
70
1
0
ENDTAB
0
TABLE
2
BLOCK_RECORD
5
1
100
AcDbSymbolTable
70
1
0
BLOCK_RECORD
5
1F
100
AcDbSymbolTableRecord
100
AcDbBlockTableRecord
2
*MODEL_SPACE
0
BLOCK_RECORD
5
1B
100
AcDbSymbolTableRecord
100
AcDbBlockTableRecord
2
*PAPER_SPACE
0
ENDTAB
0
ENDSEC
0
SECTION
2
BLOCKS
0
BLOCK
5
20
100
AcDbEntity
100
AcDbBlockBegin
2
*MODEL_SPACE
0
ENDBLK
5
21
100
AcDbEntity
100
AcDbBlockEnd
0
BLOCK
5
1C
100
AcDbEntity
100
AcDbBlockBegin
2
*PAPER_SPACE
0
ENDBLK
5
1D
100
AcDbEntity
100
AcDbBlockEnd
0
ENDSEC
0
SECTION
2
ENTITIES
0
LWPOLYLINE
5
100
100
AcDbEntity
8
0
100
AcDbPolyline
90
8
70
1
43
0.0
10
70.67884287983226
20
-35.478544632607466
10
75.629475755280666
20
-30.529682729853537
42
-0.41421356237309392
10
82.700543453996588
20
-30.530947710349583
10
96.84014889043641
20
-44.675613068773465
42
-0.41421356237308737
10
96.83888390994035
20
-51.746680767489465
10
91.888251034491972
20
-56.695542670243455
42
-0.41421356237309503
10
84.817183335776036
20
-56.694277689747388
10
70.677577899336185
20
-42.549612331323459
42
-0.4142135623730927
0
LWPOLYLINE
5
101
100
AcDbEntity
8
0
100
AcDbPolyline
90
8
70
1
43
0.0
10
-96.840148890436382
20
-44.675613068773515
10
-82.700543453996602
20
-30.530947710349583
42
-0.41421356237309359
10
-75.629475755280694
20
-30.529682729853537
10
-70.678842879832317
20
-35.478544632607509
42
-0.4142135623730927
10
-70.677577899336242
20
-42.549612331323416
10
-84.817183335776065
20
-56.694277689747324
42
-0.41421356237309542
10
-91.88825103449193
20
-56.695542670243427
10
-96.838883909940293
20
-51.74668076748943
42
-0.41421356237308699
0
CIRCLE
5
102
100
AcDbEntity
8
0
100
AcDbCircle
10
-111.55025383414895
20
-71.419677575328478
30
0
40
5
210
0
220
-0
230
1
0
CIRCLE
5
103
100
AcDbEntity
8
0
100
AcDbCircle
10
-103.51752079986981
20
-51.012575870284714
30
0
40
1.5000000000000036
210
0
220
-0
230
1
0
CIRCLE
5
104
100
AcDbEntity
8
0
100
AcDbCircle
10
-91.143152129105204
20
-63.38694454104926
30
0
40
1.5000000000000036
210
0
220
-0
230
1
0
CIRCLE
5
105
100
AcDbEntity
8
0
100
AcDbCircle
10
111.55025383414892
20
-71.419677575328521
30
0
40
5
210
0
220
-0
230
1
0
CIRCLE
5
106
100
AcDbEntity
8
0
100
AcDbCircle
10
103.51752079986979
20
-51.012575870284749
30
0
40
1.5000000000000036
210
0
220
-0
230
1
0
CIRCLE
5
107
100
AcDbEntity
8
0
100
AcDbCircle
10
91.143152129105175
20
-63.386944541049303
30
0
40
1.5000000000000036
210
0
220
-0
230
1
0
CIRCLE
5
108
100
AcDbEntity
8
0
100
AcDbCircle
10
-22.587997405384236
20
-7.0000000000000027
30
0
40
1.4999999999999991
210
0
220
0
230
1
0
CIRCLE
5
109
100
AcDbEntity
8
0
100
AcDbCircle
10
22.587997405384236
20
-7.0000000000000009
30
0
40
1.4999999999999991
210
0
220
0
230
1
0
LWPOLYLINE
5
110
100
AcDbEntity
8
0
100
AcDbPolyline
90
10
70
1
43
0.0
10
-126.56854249492382
20
-56.568542494923733
42
1.0000000105367122
10
-96.568542178822483
20
-86.568542178822426
10
-47.936525376511668
20
-37.936525376511682
10
47.936525376511653
20
-37.936525376511696
10
96.568542494923804
20
-86.568542494923832
42
0.99999999999999989
10
126.5685424949238
20
-56.568542494923797
10
74.393398282201773
20
-4.3933982822017903
42
0.19891236737965823
10
63.786796564403573
20
1.1102230246251565e-15
10
-63.786796564403531
20
-2.2204460492503131e-15
42
0.19891236737965692
10
-74.393398282201758
20
-4.3933982822017743
0
ENDSEC
0
SECTION
2
OBJECTS
0
DICTIONARY
5
C
100
AcDbDictionary
3
ACAD_GROUP
350
D
3
ACAD_MLINESTYLE
350
17
0
DICTIONARY
5
D
100
AcDbDictionary
0
DICTIONARY
5
1A
330
C
100
AcDbDictionary
0
DICTIONARY
5
17
100
AcDbDictionary
0
ENDSEC
0
EOF
