0
SECTION
2
HEADER
9
$INSUNITS
70
4
9
$ACADVER
1
AC1014
9
$HANDSEED
5
FFFF
0
ENDSEC
0
SECTION
2
TABLES
0
TABLE
2
VPORT
5
8
100
AcDbSymbolTable
0
ENDTAB
0
TABLE
2
LTYPE
5
5
100
AcDbSymbolTable
0
LTYPE
5
14
100
AcDbSymbolTableRecord
100
AcDbLinetypeTableRecord
2
BYBLOCK
70
0
0
LTYPE
5
15
100
AcDbSymbolTableRecord
100
AcDbLinetypeTableRecord
2
BYLAYER
70
0
0
LTYPE
5
16
100
AcDbSymbolTableRecord
100
AcDbLinetypeTableRecord
2
DASHED
70
0
3
Dashed __ __ __ __ __ __ __ __ __ __ __ __ __ _
72
65
73
2
40
0.75
49
0.5
74
0
49
-0.25
74
0
0
ENDTAB
0
TABLE
2
LAYER
5
2
100
AcDbSymbolTable
70
2
0
LAYER
5
50
100
AcDbSymbolTableRecord
100
AcDbLayerTableRecord
2
0
70
0
62
7
6
CONTINUOUS
0
ENDTAB
0
TABLE
2
STYLE
5
3
100
AcDbSymbolTable
70
1
0
STYLE
5
11
100
AcDbSymbolTableRecord
100
AcDbTextStyleTableRecord
2
STANDARD
70
0
0
ENDTAB
0
TABLE
2
VIEW
5
6
100
AcDbSymbolTable
70
0
0
ENDTAB
0
TABLE
2
UCS
5
7
100
AcDbSymbolTable
70
0
0
ENDTAB
0
TABLE
2
APPID
5
9
100
AcDbSymbolTable
70
2
0
APPID
5
12
100
AcDbSymbolTableRecord
100
AcDbRegAppTableRecord
2
ACAD
70
0
0
ENDTAB
0
TABLE
2
DIMSTYLE
5
A
100
AcDbSymbolTable
70
1
0
ENDTAB
0
TABLE
2
BLOCK_RECORD
5
1
100
AcDbSymbolTable
70
1
0
BLOCK_RECORD
5
1F
100
AcDbSymbolTableRecord
100
AcDbBlockTableRecord
2
*MODEL_SPACE
0
BLOCK_RECORD
5
1B
100
AcDbSymbolTableRecord
100
AcDbBlockTableRecord
2
*PAPER_SPACE
0
ENDTAB
0
ENDSEC
0
SECTION
2
BLOCKS
0
BLOCK
5
20
100
AcDbEntity
100
AcDbBlockBegin
2
*MODEL_SPACE
0
ENDBLK
5
21
100
AcDbEntity
100
AcDbBlockEnd
0
BLOCK
5
1C
100
AcDbEntity
100
AcDbBlockBegin
2
*PAPER_SPACE
0
ENDBLK
5
1D
100
AcDbEntity
100
AcDbBlockEnd
0
ENDSEC
0
SECTION
2
ENTITIES
0
LWPOLYLINE
5
100
100
AcDbEntity
8
0
100
AcDbPolyline
90
36
70
1
43
0.0
10
-27.706548169558651
20
-18.096484308311286
10
-27.706548169558651
20
-16.09698430831131
10
-31.705548169558675
20
-16.096984308311274
10
-31.705548169558678
20
-17.346884308311278
10
-34.206748169558637
20
-17.346884308311314
10
-34.206748169558708
20
-16.09698430831131
10
-37.706548169558729
20
-16.09698430831131
10
-37.706548169558729
20
-13.096984308311265
10
-34.206748169558708
20
-13.096984308311336
10
-34.206748169558708
20
-11.84568430831135
10
-31.705548169558678
20
-11.845684308311315
10
-31.705548169558678
20
-13.096984308311301
10
-27.706548169558726
20
-13.096984308311267
10
-27.706548169558651
20
-11.096084308311308
10
-24.706508170338317
20
-11.096084308311307
10
-24.70650816955871
20
-5.0960843083112923
10
-74.705948169558638
20
-5.0960843083113279
10
-74.705948168779045
20
-11.096084308311305
10
-71.705908169558711
20
-11.096084308311305
10
-71.705908169558697
20
-13.096984308311299
10
-67.706908169558673
20
-13.096984308311301
10
-67.706908169558673
20
-11.845684308311348
10
-65.205708169558648
20
-11.845684308311313
10
-65.205708169558648
20
-13.096984308311299
10
-61.705908169558697
20
-13.096984308311301
10
-61.705908169558626
20
-16.09698430831131
10
-65.205708169558648
20
-16.09698430831131
10
-65.205708169558648
20
-17.346884308311314
10
-67.706908169558602
20
-17.346884308311349
10
-67.706908169558673
20
-16.09698430831131
10
-71.705908169558697
20
-16.09698430831131
10
-71.705908169558697
20
-18.096484308311322
10
-74.705948168779031
20
-18.096484308311322
10
-74.705948169558653
20
-24.096474308311361
10
-24.706508169558646
20
-24.09647430831129
10
-24.706508170338314
20
-18.096484308311286
0
LWPOLYLINE
5
101
100
AcDbEntity
8
0
100
AcDbPolyline
90
4
70
1
43
0.0
10
-51.206308169558639
20
-19.595784308311298
10
-54.20620816955865
20
-19.595784308311298
10
-54.20620816955865
20
-9.5967843083112605
10
-51.206308169558639
20
-9.596784308311296
0
LWPOLYLINE
5
102
100
AcDbEntity
8
0
100
AcDbPolyline
90
36
70
1
43
0.0
10
-82.746872551408103
20
-18.010257945315431
10
-82.746872551408103
20
-16.010757945315419
10
-86.745872551408084
20
-16.010757945315454
10
-86.745872551408084
20
-17.260657945315458
10
-89.247072551408039
20
-17.260657945315415
10
-89.247072551408081
20
-16.010757945315447
10
-92.746872551408103
20
-16.010757945315447
10
-92.74687255140806
20
-13.010757945315474
10
-89.247072551408081
20
-13.010757945315474
10
-89.247072551408081
20
-11.759457945315454
10
-86.745872551408127
20
-11.759457945315424
10
-86.745872551408084
20
-13.010757945315445
10
-82.746872551408103
20
-13.010757945315481
10
-82.746872551408103
20
-11.009857945315416
10
-79.746832552187769
20
-11.009857945315416
10
-79.746832551408076
20
-5.0098579453154013
10
-129.74627255140808
20
-5.0098579453154679
10
-129.74627255062845
20
-11.009857945315446
10
-126.74623255140813
20
-11.009857945315414
10
-126.7462325514081
20
-13.010757945315476
10
-122.74723255140812
20
-13.010757945315479
10
-122.74723255140812
20
-11.759457945315493
10
-120.24603255140812
20
-11.759457945315422
10
-120.24603255140809
20
-13.010757945315444
10
-116.7462325514081
20
-13.010757945315444
10
-116.7462325514081
20
-16.010757945315451
10
-120.24603255140809
20
-16.010757945315451
10
-120.24603255140812
20
-17.260657945315454
10
-122.74723255140815
20
-17.260657945315454
10
-122.74723255140812
20
-16.010757945315451
10
-126.7462325514081
20
-16.010757945315415
10
-126.7462325514081
20
-18.010257945315427
10
-129.74627255062845
20
-18.010257945315459
10
-129.74627255140808
20
-24.010247945315424
10
-79.74683255140809
20
-24.010247945315399
10
-79.746832552187755
20
-18.010257945315431
0
LWPOLYLINE
5
103
100
AcDbEntity
8
0
100
AcDbPolyline
90
4
70
1
43
0.0
10
-106.24663255140808
20
-19.509557945315436
10
-109.24653255140809
20
-19.5095579453154
10
-109.24653255140809
20
-9.5105579453154352
10
-106.24663255140808
20
-9.510557945315437
0
LWPOLYLINE
5
104
100
AcDbEntity
8
0
100
AcDbPolyline
90
8
70
1
43
0.0
10
-138.11958243800129
20
-88.262787622493889
10
-138.11958243800126
20
-13.263507622493886
42
0.41421356237309609
10
-148.11958243800112
20
-3.2635076224938508
10
-273.11958243800075
20
-3.2635076224938797
42
0.41421356237309503
10
-283.11958243800069
20
-13.263507622493886
10
-283.11958243800075
20
-88.262787622493889
42
0.41421356237309503
10
-273.11958243800075
20
-98.262787622493889
10
-148.11958243800126
20
-98.262787622493889
42
0.4142135623730987
0
LWPOLYLINE
5
105
100
AcDbEntity
8
0
100
AcDbPolyline
90
8
70
1
43
0.0
10
-238.9413536023261
20
-17.584715538048936
10
-207.84741177899693
20
-48.715757291964429
42
-0.41421356237309875
10
-207.84994133606494
20
-52.958397224994513
10
-238.98124509217411
20
-84.052600738280802
42
-0.4142135623731098
10
-243.22388502520425
20
-84.050071181212672
10
-274.31782684853385
20
-52.919029427297261
42
-0.41421356237309626
10
-274.3152972914657
20
-48.676389494267234
10
-243.18399353535625
20
-17.582185980980878
42
-0.41421356237309165
0
CIRCLE
5
106
100
AcDbEntity
8
0
100
AcDbCircle
10
-148.61958243800126
20
-71.078052952450875
30
0
40
1.5000000000000002
210
0
220
0
230
1
0
CIRCLE
5
107
100
AcDbEntity
8
0
100
AcDbCircle
10
-196.81858243800099
20
-69.778752952450859
30
0
40
1.5000000000000002
210
0
220
0
230
1
0
CIRCLE
5
108
100
AcDbEntity
8
0
100
AcDbCircle
10
-153.71958243800125
20
-18.978552952450887
30
0
40
1.5000000000000002
210
0
220
0
230
1
0
CIRCLE
5
109
100
AcDbEntity
8
0
100
AcDbCircle
10
-219.11958243800089
20
-72.639452952450853
30
0
40
1.5000000000000002
210
0
220
0
230
1
0
CIRCLE
5
110
100
AcDbEntity
8
0
100
AcDbCircle
10
-263.11858243800066
20
-72.639452952450881
30
0
40
1.5000000000000002
210
0
220
0
230
1
0
CIRCLE
5
111
100
AcDbEntity
8
0
100
AcDbCircle
10
-263.11858243800077
20
-28.638652952450894
30
0
40
1.5000000000000002
210
0
220
0
230
1
0
CIRCLE
5
112
100
AcDbEntity
8
0
100
AcDbCircle
10
-219.11958243800089
20
-28.638652952450858
30
0
40
1.5000000000000002
210
0
220
0
230
1
0
CIRCLE
5
113
100
AcDbEntity
8
0
100
AcDbCircle
10
-181.61958243800109
20
-18.978552952450887
30
0
40
1.5000000000000002
210
0
220
0
230
1
0
LWPOLYLINE
5
114
100
AcDbEntity
8
0
100
AcDbPolyline
90
29
70
1
43
0.0
10
-127.5574059143625
20
-47.218232543697347
10
-124.3775261693801
20
-59.677951555761652
42
0.34278118788713602
10
-118.56387173406681
20
-64.194232543697353
10
-118.1044287932405
20
-64.194232543697353
42
0.31511426036305756
10
-113.40711492075627
20
-60.90748745274243
42
-0.30139410111414078
10
-103.40174896005749
20
-53.526436932076308
10
-79.858205914362486
20
-47.218232543697354
10
-79.858205914362486
20
-42.718932543697349
10
-76.858205914362486
20
-42.718932543697356
10
-76.858205914362486
20
-32.718632543697353
10
-79.858205914362486
20
-32.718632543697353
10
-79.858205914362486
20
-31.217932543697351
10
-81.179705914362486
20
-31.217932543697351
10
-81.179705914362486
20
-28.217932543697355
10
-88.579905914362485
20
-28.217932543697351
10
-88.579905914362485
20
-31.219332543697348
10
-96.058505914362485
20
-31.219332543697355
10
-96.058505914362499
20
-33.719132543697356
10
-111.0584059143625
20
-33.719132543697356
10
-111.0584059143625
20
-31.219332543697355
10
-117.0974059143625
20
-31.219332543697348
10
-117.0974059143625
20
-28.217932543697351
10
-126.09640591436249
20
-28.217932543697351
10
-126.09640591436249
20
-31.217932543697351
10
-127.5574059143625
20
-31.217932543697348
10
-127.5574059143625
20
-32.718632543697346
10
-130.55740591434542
20
-32.718632543697346
10
-130.5574059143625
20
-42.718932543697349
10
-127.5574059143625
20
-42.718932543697349
0
CIRCLE
5
115
100
AcDbEntity
8
0
100
AcDbCircle
10
-118.5574059143625
20
-58.218382543697345
30
0
40
1.3500000000000003
210
0
220
-0
230
1
0
LWPOLYLINE
5
116
100
AcDbEntity
8
0
100
AcDbPolyline
90
20
70
1
43
0.0
10
-32.510235914362575
20
-64.152932543697361
10
-29.510205914362469
20
-64.152932543697361
10
-29.510205914362469
20
-73.153032543630061
10
-9.0104759143624857
20
-73.15303254369735
10
-9.0104759143624875
20
-58.152932543697361
10
-12.010505914362488
20
-58.152932543697361
10
-12.010505914362493
20
-38.152232543697366
10
-9.0104759143624875
20
-38.152232543697352
10
-9.0104759143624875
20
-28.153132543697357
10
-29.510205914362473
20
-28.153132543697357
10
-29.510205914362473
20
-35.652432543697358
10
-32.510235914362575
20
-35.652432543697358
10
-32.510235914362575
20
-28.153132543697357
10
-59.009705914362591
20
-28.153132543697357
10
-59.009705914863758
20
-41.153632543697356
10
-56.009705914362584
20
-41.153632543697356
10
-56.009705914362584
20
-63.152532543697362
10
-59.009705914863758
20
-63.152532543697362
10
-59.009705914362591
20
-73.15303254369735
10
-32.510235914362575
20
-73.153032543630061
0
LWPOLYLINE
5
117
100
AcDbEntity
8
0
100
AcDbPolyline
90
4
70
1
43
0.0
10
-27.10443690494737
20
-49.752632543697359
10
-22.114532028047801
20
-49.752632543697359
42
-0.99999999999999989
10
-22.114532028047801
20
-51.552132543697354
10
-27.10443690494737
20
-51.552132543697354
42
-0.99999999999999989
0
CIRCLE
5
118
100
AcDbEntity
8
0
100
AcDbCircle
10
-34.009505914362578
20
-50.652332543697355
30
0
40
3.5500000000000003
210
0
220
0
230
1
0
LWPOLYLINE
5
119
100
AcDbEntity
8
0
100
AcDbPolyline
90
4
70
1
43
0.0
10
-40.952332028047884
20
-51.539732543697355
42
0.99999999999999989
10
-40.952332028047884
20
-49.74023254369736
10
-45.942236904947286
20
-49.74023254369736
42
0.99999999999999989
10
-45.942236904947286
20
-51.539732543697369
0
LWPOLYLINE
5
120
100
AcDbEntity
8
0
100
AcDbPolyline
90
10
70
1
43
0.0
10
-60.900605914362522
20
-72.885632543697355
10
-60.900605914362522
20
-54.885832543697362
42
0.41421356237309592
10
-63.900605914362529
20
-51.885832543697354
10
-80.901405914362599
20
-51.885832543697362
10
-91.059110259367699
20
-52.418843266403513
42
0.39894054092333386
10
-93.901905914362501
20
-55.414721567321543
10
-93.901905914362501
20
-72.357743525712252
42
0.39896899250820156
10
-91.058816124496204
20
-75.353637246449992
10
-80.901405914362599
20
-75.885632543697355
10
-63.900605914362529
20
-75.885632543697355
42
0.41421356237309503
0
CIRCLE
5
121
100
AcDbEntity
8
0
100
AcDbCircle
10
-63.901705914362552
20
-72.384184194411958
30
0
40
1.3500000000000003
210
0
220
-0
230
1
0
CIRCLE
5
122
100
AcDbEntity
8
0
100
AcDbCircle
10
-91.101755914362485
20
-72.384184194411958
30
0
40
1.3500000000000003
210
0
220
-0
230
1
0
CIRCLE
5
123
100
AcDbEntity
8
0
100
AcDbCircle
10
-63.901705914362552
20
-55.386980892982791
30
0
40
1.3500000000000003
210
0
220
-0
230
1
0
CIRCLE
5
124
100
AcDbEntity
8
0
100
AcDbCircle
10
-91.101755914362485
20
-55.386980892982791
30
0
40
1.3500000000000003
210
0
220
0
230
1
0
LWPOLYLINE
5
125
100
AcDbEntity
8
0
100
AcDbPolyline
90
20
70
1
43
0.0
10
-90.401205914362492
20
-61.385832543697354
10
-88.900905914362497
20
-61.385832543697354
10
-88.900905914362497
20
-57.885832543697362
10
-83.401105914362589
20
-57.885832543697347
10
-83.401105914362589
20
-54.885832543697354
10
-71.401105914362503
20
-54.885832543697354
10
-71.401105914362503
20
-57.885832543697347
10
-65.901205914362507
20
-57.885832543697347
10
-65.901205914362521
20
-61.385832543697347
10
-64.400905914362539
20
-61.385832543697354
10
-64.400905914362554
20
-66.385332543697359
10
-65.901205914362521
20
-66.385332543697359
10
-65.901205914362507
20
-69.885632543697355
10
-71.401105914362518
20
-69.885632543697355
10
-71.401105914362518
20
-72.885632543697355
10
-83.401105914362589
20
-72.885632543697355
10
-83.401105914362589
20
-69.885632543697355
10
-88.900905914362497
20
-69.885632543697355
10
-88.900905914362497
20
-66.385332543697345
10
-90.401205914362492
20
-66.385332543697345
0
LWPOLYLINE
5
126
100
AcDbEntity
8
0
100
AcDbPolyline
90
4
70
1
43
0.0
10
-12.98968842963577
20
-77.937432543697355
10
-92.951371149705381
20
-77.937432543697355
42
0.99999999999999989
10
-92.951371149705409
20
-89.937432543697355
10
-12.989688429635784
20
-89.937432543697355
42
0.99999999999999989
0
LWPOLYLINE
5
127
100
AcDbEntity
8
0
100
AcDbPolyline
90
4
70
1
43
0.0
10
-82.954505914362585
20
-82.436832543697363
10
-74.955305914362484
20
-82.436832543697363
10
-74.955305914362484
20
-85.436932543697367
10
-82.954505914362585
20
-85.436932543697353
0
LWPOLYLINE
5
128
100
AcDbEntity
8
0
100
AcDbPolyline
90
4
70
1
43
0.0
10
-41.328205914362485
20
-82.436832543697363
10
-35.955405914362586
20
-82.436832543697363
10
-35.955405914362579
20
-85.436932543697367
10
-41.328205914362485
20
-85.436932543697367
0
LWPOLYLINE
5
129
100
AcDbEntity
8
0
100
AcDbPolyline
90
4
70
1
43
0.0
10
-22.980851698061976
20
-84.871685479142585
42
0.99999999999999989
10
-22.980851698061976
20
-83.037532543697353
10
-27.928460130663076
20
-83.037532543697353
42
0.99999999999999989
10
-27.928460130663076
20
-84.871685479142585
0
CIRCLE
5
130
100
AcDbEntity
8
0
100
AcDbCircle
10
-12.98968842963577
20
-83.937432543697369
30
0
40
3.5438257956586208
210
0
220
0
230
1
0
CIRCLE
5
131
100
AcDbEntity
8
0
100
AcDbCircle
10
-48.957855914362483
20
-83.937632543697362
30
0
40
1.3575910637403505
210
8.5528470722950242e-50
220
1.5407439555097887e-33
230
1
0
CIRCLE
5
132
100
AcDbEntity
8
0
100
AcDbCircle
10
-92.944805914362604
20
-83.937532543697358
30
0
40
1.3575910637403505
210
8.5528470722950242e-50
220
1.5407439555097887e-33
230
1
0
LWPOLYLINE
5
133
100
AcDbEntity
8
0
100
AcDbPolyline
90
4
70
1
43
0.0
10
-12.989688429635763
20
-92.79003254369735
10
-92.951371149705381
20
-92.79003254369735
42
0.99999999999999989
10
-92.951371149705381
20
-104.79003254369735
10
-12.989688429635766
20
-104.79003254369735
42
0.99999999999999989
0
LWPOLYLINE
5
134
100
AcDbEntity
8
0
100
AcDbPolyline
90
4
70
1
43
0.0
10
-30.454105914362465
20
-97.289432543697359
10
-22.954905914362563
20
-97.289432543697359
10
-22.954905914362563
20
-100.28953254369736
10
-30.454105914362465
20
-100.28953254369736
0
LWPOLYLINE
5
135
100
AcDbEntity
8
0
100
AcDbPolyline
90
4
70
1
43
0.0
10
-82.954505914362585
20
-97.289432543697359
10
-77.955005914362488
20
-97.289432543697359
10
-77.955005914362488
20
-100.28953254369736
10
-82.954505914362585
20
-100.28953254369736
0
CIRCLE
5
136
100
AcDbEntity
8
0
100
AcDbCircle
10
-92.944805914362576
20
-98.790132543697354
30
0
40
1.3000000000000003
210
-1.5407439555097887e-33
220
1.5407439555097885e-33
230
1
0
CIRCLE
5
137
100
AcDbEntity
8
0
100
AcDbCircle
10
-60.953912388642706
20
-98.790182543697341
30
0
40
1.3000000000000003
210
-1.5407439555097887e-33
220
1.5407439555097885e-33
230
1
0
CIRCLE
5
138
100
AcDbEntity
8
0
100
AcDbCircle
10
-12.989688429635763
20
-98.79003254369735
30
0
40
1.3000000000000003
210
-1.5407439555097887e-33
220
1.5407439555097885e-33
230
1
0
LWPOLYLINE
5
139
100
AcDbEntity
8
0
100
AcDbPolyline
90
6
70
1
43
0.0
10
-93.010114844478778
20
-106.67653254369736
42
0.41421356237309503
10
-97.010114844478778
20
-110.67653254369736
42
0.41414034096311508
10
-93.010114969478778
20
-114.67553254369736
10
-13.011572335230959
20
-114.67553254369734
42
0.41421356237309503
10
-9.0115723352309569
20
-110.67553254369736
42
0.41414034096311475
10
-13.011572210230957
20
-106.67653254369736
0
CIRCLE
5
140
100
AcDbEntity
8
0
100
AcDbCircle
10
-93.009626378777185
20
-110.67604407799577
30
0
40
1.3540105024414304
210
0
220
0
230
1
0
CIRCLE
5
141
100
AcDbEntity
8
0
100
AcDbCircle
10
-13.011083869529362
20
-110.67504407799576
30
0
40
1.3540105024414304
210
0
220
0
230
1
0
LWPOLYLINE
5
142
100
AcDbEntity
8
0
100
AcDbPolyline
90
6
70
1
43
0.0
10
-93.010114844478778
20
-116.99553254369735
42
0.41421356237309503
10
-97.010114844478778
20
-120.99553254369737
42
0.41414034096311508
10
-93.010114969478778
20
-124.99453254369737
10
-13.011572335230959
20
-124.99453254369735
42
0.41421356237309503
10
-9.0115723352309569
20
-120.99453254369736
42
0.41414034096311475
10
-13.011572210230957
20
-116.99553254369735
0
CIRCLE
5
143
100
AcDbEntity
8
0
100
AcDbCircle
10
-93.009626378777185
20
-120.99504407799577
30
0
40
1.3540105024414304
210
0
220
0
230
1
0
CIRCLE
5
144
100
AcDbEntity
8
0
100
AcDbCircle
10
-13.011083869529362
20
-120.99404407799577
30
0
40
1.3540105024414304
210
0
220
0
230
1
0
LWPOLYLINE
5
145
100
AcDbEntity
8
0
100
AcDbPolyline
90
6
70
1
43
0.0
10
-93.010114844478764
20
-127.84353254369735
42
0.41421356237309503
10
-97.010114844478764
20
-131.84353254369736
42
0.41414034096311381
10
-93.010114969478778
20
-135.84253254369736
10
-13.011572335230959
20
-135.84253254369736
42
0.41421356237309537
10
-9.0115723352309534
20
-131.84253254369736
42
0.41414034096311475
10
-13.011572210230952
20
-127.84353254369735
0
CIRCLE
5
146
100
AcDbEntity
8
0
100
AcDbCircle
10
-93.00962637877717
20
-131.84304407799576
30
0
40
1.3540105024414304
210
0
220
0
230
1
0
CIRCLE
5
147
100
AcDbEntity
8
0
100
AcDbCircle
10
-13.011083869529356
20
-131.84204407799578
30
0
40
1.3540105024414304
210
0
220
0
230
1
0
LWPOLYLINE
5
148
100
AcDbEntity
8
0
100
AcDbPolyline
90
10
70
1
43
0.0
10
-105.26360591436251
20
-66.953332543697428
10
-123.26340591436251
20
-66.953332543697456
42
0.41421356237309503
10
-126.26340591436252
20
-69.953332543697456
10
-126.26340591436247
20
-96.454332543697461
10
-125.73039519165631
20
-106.61203688870258
42
0.39894054092333303
10
-122.73451689073829
20
-109.45483254369736
10
-105.79149493234753
20
-109.45483254369734
42
0.39896899250819984
10
-102.79560121160982
20
-106.61174275383104
10
-102.26360591436249
20
-96.454332543697433
10
-102.2636059143625
20
-69.953332543697428
42
0.41421356237309503
0
CIRCLE
5
149
100
AcDbEntity
8
0
100
AcDbCircle
10
-105.21440591436252
20
-69.953182543697437
30
0
40
1.3500000000000003
210
-2.2149253518486194e-48
220
1.5407439555097887e-33
230
1
0
CIRCLE
5
150
100
AcDbEntity
8
0
100
AcDbCircle
10
-123.31340591436252
20
-69.953182543697366
30
0
40
1.3500000000000003
210
-2.2149253518486194e-48
220
1.5407439555097887e-33
230
1
0
CIRCLE
5
151
100
AcDbEntity
8
0
100
AcDbCircle
10
-122.76225756507706
20
-79.454632543697429
30
0
40
1.3500000000000003
210
-2.2149253518486194e-48
220
1.5407439555097887e-33
230
1
0
LWPOLYLINE
5
152
100
AcDbEntity
8
0
100
AcDbPolyline
90
12
70
1
43
0.0
10
-108.26360591436249
20
-86.954032543697366
10
-105.26360591436247
20
-86.954032543697366
10
-105.26360591436246
20
-98.954032543697423
10
-108.26360591436249
20
-98.954032543697423
10
-108.26360591436247
20
-104.45383254369736
10
-120.26340591436247
20
-104.45383254369736
10
-120.26340591436247
20
-98.954032543697451
10
-123.26340591436248
20
-98.954032543697451
10
-123.26340591436249
20
-86.954032543697366
10
-120.26340591436249
20
-86.954032543697366
10
-120.26340591436249
20
-81.454132543697369
10
-108.2636059143625
20
-81.454132543697355
0
CIRCLE
5
153
100
AcDbEntity
8
0
100
AcDbCircle
10
-105.7650542636479
20
-79.4546325436974
30
0
40
1.3500000000000003
210
-2.2149253518486194e-48
220
1.5407439555097887e-33
230
1
0
CIRCLE
5
154
100
AcDbEntity
8
0
100
AcDbCircle
10
-105.76505426364787
20
-106.65468254369733
30
0
40
1.3500000000000003
210
-2.2149253518486194e-48
220
1.5407439555097887e-33
230
1
0
CIRCLE
5
155
100
AcDbEntity
8
0
100
AcDbCircle
10
-122.76225756507702
20
-106.65468254369736
30
0
40
1.3500000000000003
210
-2.2149253518486194e-48
220
1.5407439555097887e-33
230
1
0
LINE
5
156
100
AcDbEntity
8
0
100
AcDbLine
10
-142.08768565615156
20
-130.5553261875354
30
0
11
-142.09957042232855
21
-130.54305938433939
31
0
0
LINE
5
157
100
AcDbEntity
8
0
100
AcDbLine
10
-142.09957042232855
20
-130.54305938433939
30
0
11
-142.08768565605754
21
-130.54305938433939
31
0
0
LINE
5
158
100
AcDbEntity
8
0
100
AcDbLine
10
-142.08768565605754
20
-130.54305938433939
30
0
11
-142.08768565615156
21
-116.18575240233039
31
0
0
SPLINE
5
159
100
AcDbEntity
8
0
100
AcDbSpline
70
0
71
3
72
8
73
4
74
0
42
0.000000001
43
0.0000000001
44
0.0000000001
40
0
40
0
40
0
40
0
40
1
40
1
40
1
40
1
10
-142.08768565615156
20
-116.18575240233039
30
-5.5511151231257827e-16
10
-141.81768565615155
20
-116.16675240233039
30
-5.5511151231257827e-16
10
-141.55468565615155
20
-116.2767524023304
30
-5.5511151231257827e-16
10
-141.37668565615155
20
-116.4787524023304
30
-5.5511151231257827e-16
0
ELLIPSE
5
160
100
AcDbEntity
8
0
100
AcDbEllipse
10
-138.26525704386989
20
-113.67340721429768
30
0
11
1.714442624376785
21
3.8383726520429517
31
0.0
40
0.97955082505511104
41
2.7168766385027783
42
3.2645320979323027
0
SPLINE
5
161
100
AcDbEntity
8
0
100
AcDbSpline
70
0
71
3
72
8
73
4
74
0
42
0.000000001
43
0.0000000001
44
0.0000000001
40
0
40
0
40
0
40
0
40
1
40
1
40
1
40
1
10
-139.50568565615157
20
-117.68875240233038
30
-5.5511151231257827e-16
10
-139.22468565615156
20
-117.77475240233039
30
-5.5511151231257827e-16
10
-138.91968565615156
20
-117.6987524023304
30
-5.5511151231257827e-16
10
-138.71068565615155
20
-117.49175240233038
30
-5.5511151231257827e-16
0
SPLINE
5
162
100
AcDbEntity
8
0
100
AcDbSpline
70
0
71
3
72
8
73
4
74
0
42
0.000000001
43
0.0000000001
44
0.0000000001
40
0
40
0
40
0
40
0
40
1
40
1
40
1
40
1
10
-138.71068565615155
20
-117.49175240233038
30
-5.5511151231257827e-16
10
-138.67868565615154
20
-117.46175240233038
30
-5.5511151231257827e-16
10
-138.64668565615156
20
-117.4287524023304
30
-5.5511151231257827e-16
10
-138.61568565615156
20
-117.39675240233039
30
-5.5511151231257827e-16
0
SPLINE
5
163
100
AcDbEntity
8
0
100
AcDbSpline
70
0
71
3
72
8
73
4
74
0
42
0.000000001
43
0.0000000001
44
0.0000000001
40
0
40
0
40
0
40
0
40
1
40
1
40
1
40
1
10
-138.61568565615156
20
-117.39675240233039
30
-5.5511151231257827e-16
10
-138.40968565615157
20
-117.18875240233039
30
-5.5511151231257827e-16
10
-138.33468565615155
20
-116.88475240233039
30
-5.5511151231257827e-16
10
-138.41968565615156
20
-116.60375240233039
30
0
0
ELLIPSE
5
164
100
AcDbEntity
8
0
100
AcDbEllipse
10
-142.28327366363845
20
-117.75716939707165
30
0
11
-3.6910517557864448
21
1.6366794171404853
31
0.0
40
0.99674680767709789
41
3.8506819683088533
42
4.4106417524295205
0
SPLINE
5
165
100
AcDbEntity
8
0
100
AcDbSpline
70
0
71
3
72
8
73
4
74
0
42
0.000000001
43
0.0000000001
44
0.0000000001
40
0
40
0
40
0
40
0
40
1
40
1
40
1
40
1
10
-139.62868565615156
20
-114.73075240233038
30
0
10
-139.93968565615157
20
-114.45875240233038
30
0
10
-140.01568565615156
20
-114.00475240233038
30
0
10
-139.80868565615157
20
-113.64575240233039
30
0
0
SPLINE
5
166
100
AcDbEntity
8
0
100
AcDbSpline
70
0
71
3
72
8
73
4
74
0
42
0.000000001
43
0.0000000001
44
0.0000000001
40
0
40
0
40
0
40
0
40
1
40
1
40
1
40
1
10
-139.80868565615157
20
-113.64575240233039
30
0
10
-139.60168565615155
20
-113.2877524023304
30
0
10
-139.17068565615156
20
-113.1247524023304
30
0
10
-138.77868565615157
20
-113.2587524023304
30
0
0
ELLIPSE
5
167
100
AcDbEntity
8
0
100
AcDbEllipse
10
-137.48732190403382
20
-109.45460580548274
30
0
11
-3.4429602977515112
21
2.1051149200079395
31
0.0
40
0.99527034327776287
41
1.7913045365730733
42
2.3512425574490146
0
SPLINE
5
168
100
AcDbEntity
8
0
100
AcDbSpline
70
0
71
3
72
8
73
4
74
0
42
0.000000001
43
0.0000000001
44
0.0000000001
40
0
40
0
40
0
40
0
40
1
40
1
40
1
40
1
10
-136.55368565615154
20
-113.3707524023304
30
0
10
-136.26668565615157
20
-113.3037524023304
30
0
10
-136.04168565615157
20
-113.08675240233038
30
0
10
-135.96268565615156
20
-112.8027524023304
30
0
0
SPLINE
5
169
100
AcDbEntity
8
0
100
AcDbSpline
70
0
71
3
72
8
73
4
74
0
42
0.000000001
43
0.0000000001
44
0.0000000001
40
0
40
0
40
0
40
0
40
1
40
1
40
1
40
1
10
-135.96268565615156
20
-112.8027524023304
30
0
10
-135.95168565615157
20
-112.75975240233039
30
0
10
-135.93968565615157
20
-112.71575240233039
30
0
10
-135.92768565615157
20
-112.6727524023304
30
0
0
SPLINE
5
170
100
AcDbEntity
8
0
100
AcDbSpline
70
0
71
3
72
8
73
4
74
0
42
0.000000001
43
0.0000000001
44
0.0000000001
40
0
40
0
40
0
40
0
40
1
40
1
40
1
40
1
10
-135.92768565615157
20
-112.6727524023304
30
0
10
-135.85368565615155
20
-112.3887524023304
30
0
10
-135.94168565615155
20
-112.08775240233039
30
0
10
-136.15568565615155
20
-111.88775240233039
30
0
0
ELLIPSE
5
171
100
AcDbEntity
8
0
100
AcDbEllipse
10
-138.85030613853289
20
-114.70580084718907
30
0
11
-3.4952259349653469
21
1.8752835065464275
31
0.0
40
0.98170930947665658
41
4.446534533655802
42
5.0160517891499854
0
SPLINE
5
172
100
AcDbEntity
8
0
100
AcDbSpline
70
0
71
3
72
8
73
4
74
0
42
0.000000001
43
0.0000000001
44
0.0000000001
40
0
40
0
40
0
40
0
40
1
40
1
40
1
40
1
10
-138.13868565615155
20
-110.8707524023304
30
0
10
-138.54468565615156
20
-110.7907524023304
30
0
10
-138.83768565615156
20
-110.4337524023304
30
0
10
-138.83768565615156
20
-110.0207524023304
30
0
0
SPLINE
5
173
100
AcDbEntity
8
0
100
AcDbSpline
70
0
71
3
72
8
73
4
74
0
42
0.000000001
43
0.0000000001
44
0.0000000001
40
0
40
0
40
0
40
0
40
1
40
1
40
1
40
1
10
-138.83768565615156
20
-110.0207524023304
30
0
10
-138.83768565615156
20
-109.60675240233039
30
0
10
-138.54468565615156
20
-109.2517524023304
30
0
10
-138.13868565615155
20
-109.1697524023304
30
0
0
SPLINE
5
174
100
AcDbEntity
8
0
100
AcDbSpline
70
0
71
3
72
10
73
6
74
0
42
0.000000001
43
0.0000000001
44
0.0000000001
40
-0.22608948328735484
40
-0.22608948328735484
40
-0.22608948328735484
40
-0.22608948328735484
40
-0.11289608407133975
40
-0.11289608407133975
40
0
40
0
40
0
40
0
10
-138.13868565615155
20
-109.1697524023304
30
0
10
-137.76845061735688
20
-109.0970009680585
30
0
10
-137.41014419258386
20
-108.97300841810099
30
0
10
-136.739418578129
20
-108.62969917394162
30
0
10
-136.43010124534439
20
-108.41226558204397
30
0
10
-136.15568565615155
20
-108.1547524023304
30
0
0
SPLINE
5
175
100
AcDbEntity
8
0
100
AcDbSpline
70
0
71
3
72
8
73
4
74
0
42
0.000000001
43
0.0000000001
44
0.0000000001
40
0
40
0
40
0
40
0
40
1
40
1
40
1
40
1
10
-136.15568565615155
20
-108.1547524023304
30
0
10
-135.94168565615155
20
-107.95375240233039
30
0
10
-135.85368565615155
20
-107.6517524023304
30
0
10
-135.92768565615157
20
-107.3687524023304
30
0
0
SPLINE
5
176
100
AcDbEntity
8
0
100
AcDbSpline
70
0
71
3
72
8
73
4
74
0
42
0.000000001
43
0.0000000001
44
0.0000000001
40
0
40
0
40
0
40
0
40
1
40
1
40
1
40
1
10
-135.92768565615157
20
-107.3687524023304
30
0
10
-135.93968565615157
20
-107.3247524023304
30
0
10
-135.95168565615157
20
-107.28075240233039
30
0
10
-135.96268565615156
20
-107.2377524023304
30
0
0
SPLINE
5
177
100
AcDbEntity
8
0
100
AcDbSpline
70
0
71
3
72
8
73
4
74
0
42
0.000000001
43
0.0000000001
44
0.0000000001
40
0
40
0
40
0
40
0
40
1
40
1
40
1
40
1
10
-135.96268565615156
20
-107.2377524023304
30
0
10
-136.04168565615157
20
-106.95375240233039
30
0
10
-136.26668565615157
20
-106.7377524023304
30
0
10
-136.55368565615154
20
-106.6697524023304
30
0
0
SPLINE
5
178
100
AcDbEntity
8
0
100
AcDbSpline
70
0
71
3
72
10
73
6
74
0
42
0.000000001
43
0.0000000001
44
0.0000000001
40
-0.2260853352214042
40
-0.2260853352214042
40
-0.2260853352214042
40
-0.2260853352214042
40
-0.11322642906019663
40
-0.11322642906019663
40
0
40
0
40
0
40
0
10
-136.55368565615154
20
-106.6697524023304
30
0
10
-136.92002990895492
20
-106.5842555075106
30
0
10
-137.29645383836524
20
-106.55076224173634
30
0
10
-138.04895784644168
20
-106.58864328775658
30
0
10
-138.42138675848128
20
-106.66016114566156
30
0
10
-138.77868565615157
20
-106.7817524023304
30
0
0
SPLINE
5
179
100
AcDbEntity
8
0
100
AcDbSpline
70
0
71
3
72
8
73
4
74
0
42
0.000000001
43
0.0000000001
44
0.0000000001
40
0
40
0
40
0
40
0
40
1
40
1
40
1
40
1
10
-138.77868565615157
20
-106.7817524023304
30
0
10
-139.17068565615156
20
-106.91575240233038
30
0
10
-139.60168565615155
20
-106.7547524023304
30
0
10
-139.80868565615157
20
-106.3957524023304
30
0
0
SPLINE
5
180
100
AcDbEntity
8
0
100
AcDbSpline
70
0
71
3
72
8
73
4
74
0
42
0.000000001
43
0.0000000001
44
0.0000000001
40
0
40
0
40
0
40
0
40
1
40
1
40
1
40
1
10
-139.80868565615157
20
-106.3957524023304
30
0
10
-140.01568565615156
20
-106.0377524023304
30
0
10
-139.93968565615157
20
-105.58175240233039
30
0
10
-139.62868565615156
20
-105.31075240233038
30
0
0
ELLIPSE
5
181
100
AcDbEntity
8
0
100
AcDbEllipse
10
-142.24714175399478
20
-102.30987497415401
30
0
11
-2.8993437830764424
21
-2.777047484984946
31
0.0
40
0.99199078639628091
41
1.5247590901662802
42
2.0874649748939982
0
SPLINE
5
182
100
AcDbEntity
8
0
100
AcDbSpline
70
0
71
3
72
8
73
4
74
0
42
0.000000001
43
0.0000000001
44
0.0000000001
40
0
40
0
40
0
40
0
40
1
40
1
40
1
40
1
10
-138.41968565615156
20
-103.43875240233039
30
0
10
-138.33468565615155
20
-103.15775240233039
30
0
10
-138.40968565615157
20
-102.8527524023304
30
0
10
-138.61568565615156
20
-102.64375240233038
30
0
0
SPLINE
5
183
100
AcDbEntity
8
0
100
AcDbSpline
70
0
71
3
72
8
73
4
74
0
42
0.000000001
43
0.0000000001
44
0.0000000001
40
0
40
0
40
0
40
0
40
1
40
1
40
1
40
1
10
-138.61568565615156
20
-102.64375240233038
30
0
10
-138.64668565615156
20
-102.61175240233038
30
0
10
-138.67868565615154
20
-102.58075240233039
30
0
10
-138.71068565615155
20
-102.54875240233039
30
0
0
SPLINE
5
184
100
AcDbEntity
8
0
100
AcDbSpline
70
0
71
3
72
8
73
4
74
0
42
0.000000001
43
0.0000000001
44
0.0000000001
40
0
40
0
40
0
40
0
40
1
40
1
40
1
40
1
10
-138.71068565615155
20
-102.54875240233039
30
0
10
-138.91968565615156
20
-102.3417524023304
30
0
10
-139.22468565615156
20
-102.2677524023304
30
0
10
-139.50568565615157
20
-102.35175240233039
30
0
0
ELLIPSE
5
185
100
AcDbEntity
8
0
100
AcDbEllipse
10
-138.26525704384534
20
-106.3670975903989
30
0
11
-1.7144426245686482
21
3.8383726520039909
31
0.0
40
0.97955082505036573
41
6.1602458627932455
42
6.7079013222198869
0
SPLINE
5
186
100
AcDbEntity
8
0
100
AcDbSpline
70
0
71
3
72
8
73
4
74
0
42
0.000000001
43
0.0000000001
44
0.0000000001
40
0
40
0
40
0
40
0
40
1
40
1
40
1
40
1
10
-141.37668565615155
20
-103.5617524023304
30
0
10
-141.64968565615155
20
-103.87275240233039
30
0
10
-142.10468565615156
20
-103.9487524023304
30
0
10
-142.46268565615156
20
-103.74175240233038
30
0
0
SPLINE
5
187
100
AcDbEntity
8
0
100
AcDbSpline
70
0
71
3
72
8
73
4
74
0
42
0.000000001
43
0.0000000001
44
0.0000000001
40
0
40
0
40
0
40
0
40
1
40
1
40
1
40
1
10
-142.46268565615156
20
-103.74175240233038
30
0
10
-142.82168565615154
20
-103.5357524023304
30
0
10
-142.98368565615155
20
-103.1027524023304
30
0
10
-142.85068565615157
20
-102.71175240233038
30
0
0
SPLINE
5
188
100
AcDbEntity
8
0
100
AcDbSpline
70
0
71
3
72
10
73
6
74
0
42
0.000000001
43
0.0000000001
44
0.0000000001
40
-0.22624595536203485
40
-0.22624595536203485
40
-0.22624595536203485
40
-0.22624595536203485
40
-0.11332858453378826
40
-0.11332858453378826
40
0
40
0
40
0
40
0
10
-142.85068565615157
20
-102.71175240233033
30
0
10
-142.72853821199217
20
-102.35573729069506
30
0
10
-142.65702862722574
20
-101.98473286282862
30
0
10
-142.61846809082149
20
-101.23173861187708
30
0
10
-142.65199699281101
20
-100.85389900355777
30
0
10
-142.73668565615156
20
-100.48575240233038
30
0
0
SPLINE
5
189
100
AcDbEntity
8
0
100
AcDbSpline
70
0
71
3
72
14
73
10
74
0
42
0.000000001
43
0.0000000001
44
0.0000000001
40
-0.086083657226351792
40
-0.086083657226351792
40
-0.086083657226351792
40
-0.086083657226351792
40
-0.064333265299194253
40
-0.064333265299194253
40
-0.042927710333581066
40
-0.042927710333581066
40
-0.021624046170357465
40
-0.021624046170357465
40
0
40
0
40
0
40
0
10
-142.73668565615156
20
-100.48575240233038
30
0
10
-142.75351302539377
20
-100.41522592830054
30
0
10
-142.77973553790068
20
-100.3473370700213
30
0
10
-142.84900786237429
20
-100.2213262421393
30
0
10
-142.8914974387188
20
-100.1635883059147
30
0
10
-142.99017541412121
20
-100.06108287091226
30
0
10
-143.04595317802909
20
-100.01661573952563
30
0
10
-143.16866673006228
20
-99.943141660268395
30
0
10
-143.23515102480007
20
-99.914738808763047
30
0
10
-143.30468565615155
20
-99.895752402330203
30
0
0
SPLINE
5
190
100
AcDbEntity
8
0
100
AcDbSpline
70
0
71
3
72
8
73
4
74
0
42
0.000000001
43
0.0000000001
44
0.0000000001
40
0
40
0
40
0
40
0
40
1
40
1
40
1
40
1
10
-143.30468565615155
20
-99.895752402330203
30
0
10
-143.34868565615156
20
-99.883752402330288
30
0
10
-143.39168565615157
20
-99.872752402330292
30
0
10
-143.43568565615155
20
-99.861752402330296
30
0
0
SPLINE
5
191
100
AcDbEntity
8
0
100
AcDbSpline
70
0
71
3
72
8
73
4
74
0
42
0.000000001
43
0.0000000001
44
0.0000000001
40
0
40
0
40
0
40
0
40
1
40
1
40
1
40
1
10
-143.43568565615155
20
-99.861752402330296
30
0
10
-143.71968565615157
20
-99.78675240233018
30
0
10
-144.02168565615156
20
-99.873752402330197
30
0
10
-144.22068565615155
20
-100.0887524023304
30
0
0
SPLINE
5
192
100
AcDbEntity
8
0
100
AcDbSpline
70
0
71
3
72
10
73
6
74
0
42
0.000000001
43
0.0000000001
44
0.0000000001
40
-0.22620952900527369
40
-0.22620952900527369
40
-0.22620952900527369
40
-0.22620952900527369
40
-0.11323071643856628
40
-0.11323071643856628
40
0
40
0
40
0
40
0
10
-144.22068565615155
20
-100.0887524023304
30
0
10
-144.47840975258327
20
-100.3633601582586
30
0
10
-144.6961406721486
20
-100.67256211054583
30
0
10
-145.04016544699959
20
-101.34336434323006
30
0
10
-145.16443124055672
20
-101.70149368949394
30
0
10
-145.23768565615157
20
-102.0717524023304
30
0
0
SPLINE
5
193
100
AcDbEntity
8
0
100
AcDbSpline
70
0
71
3
72
8
73
4
74
0
42
0.000000001
43
0.0000000001
44
0.0000000001
40
0
40
0
40
0
40
0
40
1
40
1
40
1
40
1
10
-145.23768565615157
20
-102.0717524023304
30
0
10
-145.31868565615156
20
-102.4787524023304
30
0
10
-145.67368565615155
20
-102.7707524023304
30
0
10
-146.08668565615156
20
-102.7707524023304
30
0
0
SPLINE
5
194
100
AcDbEntity
8
0
100
AcDbSpline
70
0
71
3
72
8
73
4
74
0
42
0.000000001
43
0.0000000001
44
0.0000000001
40
0
40
0
40
0
40
0
40
1
40
1
40
1
40
1
10
-146.08668565615156
20
-102.7707524023304
30
0
10
-146.50168565615155
20
-102.7707524023304
30
0
10
-146.85768565615155
20
-102.4787524023304
30
0
10
-146.93668565615155
20
-102.0717524023304
30
0
0
ELLIPSE
5
195
100
AcDbEntity
8
0
100
AcDbEllipse
10
-150.88698758910141
20
-102.83208032051108
30
0
11
-2.9252805114159686
21
2.782678632157098
31
0.0
40
0.99455847855450075
41
4.0947394627331057
42
4.6544441110190062
0
SPLINE
5
196
100
AcDbEntity
8
0
100
AcDbSpline
70
0
71
3
72
8
73
4
74
0
42
0.000000001
43
0.0000000001
44
0.0000000001
40
0
40
0
40
0
40
0
40
1
40
1
40
1
40
1
10
-147.95468565615155
20
-100.0887524023304
30
0
10
-148.15468565615157
20
-99.873752402330197
30
0
10
-148.45568565615156
20
-99.78675240233018
30
0
10
-148.73968565615155
20
-99.861752402330296
30
0
0
SPLINE
5
197
100
AcDbEntity
8
0
100
AcDbSpline
70
0
71
3
72
8
73
4
74
0
42
0.000000001
43
0.0000000001
44
0.0000000001
40
0
40
0
40
0
40
0
40
1
40
1
40
1
40
1
10
-148.73968565615155
20
-99.861752402330296
30
0
10
-148.78368565615156
20
-99.872752402330292
30
0
10
-148.82668565615157
20
-99.883752402330288
30
0
10
-148.87068565615155
20
-99.895752402330203
30
0
0
SPLINE
5
198
100
AcDbEntity
8
0
100
AcDbSpline
70
0
71
3
72
8
73
4
74
0
42
0.000000001
43
0.0000000001
44
0.0000000001
40
0
40
0
40
0
40
0
40
1
40
1
40
1
40
1
10
-148.87068565615155
20
-99.895752402330203
30
0
10
-149.15368565615157
20
-99.972752402330201
30
0
10
-149.37068565615155
20
-100.20075240233039
30
0
10
-149.43668565615155
20
-100.48575240233038
30
0
0
ELLIPSE
5
199
100
AcDbEntity
8
0
100
AcDbEllipse
10
-145.32342646398808
20
-101.40603879973277
30
0
11
-4.2195332503437086
21
0.012483956351773667
31
0.0
40
0.97728078689468534
41
6.0611466535040472
42
6.6083950303452301
0
SPLINE
5
200
100
AcDbEntity
8
0
100
AcDbSpline
70
0
71
3
72
8
73
4
74
0
42
0.000000001
43
0.0000000001
44
0.0000000001
40
0
40
0
40
0
40
0
40
1
40
1
40
1
40
1
10
-149.32568565615156
20
-102.71175240233038
30
0
10
-149.19168565615155
20
-103.1027524023304
30
0
10
-149.35468565615156
20
-103.5357524023304
30
0
10
-149.71268565615156
20
-103.74175240233038
30
0
0
SPLINE
5
201
100
AcDbEntity
8
0
100
AcDbSpline
70
0
71
3
72
8
73
4
74
0
42
0.000000001
43
0.0000000001
44
0.0000000001
40
0
40
0
40
0
40
0
40
1
40
1
40
1
40
1
10
-149.71268565615156
20
-103.74175240233038
30
0
10
-150.07068565615157
20
-103.9487524023304
30
0
10
-150.52568565615155
20
-103.87275240233039
30
0
10
-150.79868565615257
20
-103.5617524023304
30
0
0
ELLIPSE
5
202
100
AcDbEntity
8
0
100
AcDbEllipse
10
-153.91011426851259
20
-106.36709759050828
30
-5.5511151231257827e-16
11
1.7144426247220572
21
3.8383726520692591
31
0.0
40
0.97955082503522617
41
5.8584692921717894
42
6.4061247515904771
0
SPLINE
5
203
100
AcDbEntity
8
0
100
AcDbSpline
70
0
71
3
72
14
73
10
74
0
42
0.000000001
43
0.0000000001
44
0.0000000001
40
-0.086060883976050384
40
-0.086060883976050384
40
-0.086060883976050384
40
-0.086060883976050384
40
-0.064292238251310224
40
-0.064292238251310224
40
-0.042905472250621329
40
-0.042905472250621329
40
-0.021646567591284478
40
-0.021646567591284478
40
0
40
0
40
0
40
0
10
-152.66968565615156
20
-102.35175240233039
30
0
10
-152.7392095509685
20
-102.33096945868404
30
0
10
-152.81109938923984
20
-102.31959035373528
30
0
10
-152.95484652948275
20
-102.31638601959446
30
0
10
-153.02599944529075
20
-102.32424267416766
30
0
10
-153.16387939541883
20
-102.35844651120186
30
0
10
-153.23005871190645
20
-102.38454333495196
30
0
10
-153.35482967320155
20
-102.45429732900421
30
0
10
-153.41254141227165
20
-102.49785404423739
30
0
10
-153.46368565615256
20
-102.54875240233039
30
0
0
SPLINE
5
204
100
AcDbEntity
8
0
100
AcDbSpline
70
0
71
3
72
8
73
4
74
0
42
0.000000001
43
0.0000000001
44
0.0000000001
40
0
40
0
40
0
40
0
40
1
40
1
40
1
40
1
10
-153.46368565615256
20
-102.54875240233039
30
0
10
-153.49668565615156
20
-102.58075240233039
30
0
10
-153.52868565615157
20
-102.61175240233038
30
0
10
-153.56068565615254
20
-102.64375240233038
30
0
0
SPLINE
5
205
100
AcDbEntity
8
0
100
AcDbSpline
70
0
71
3
72
8
73
4
74
0
42
0.000000001
43
0.0000000001
44
0.0000000001
40
0
40
0
40
0
40
0
40
1
40
1
40
1
40
1
10
-153.56068565615254
20
-102.64375240233038
30
0
10
-153.76668565615256
20
-102.8527524023304
30
0
10
-153.84168565615255
20
-103.15775240233039
30
0
10
-153.75568565615256
20
-103.43875240233039
30
0
0
SPLINE
5
206
100
AcDbEntity
8
0
100
AcDbSpline
70
0
71
3
72
10
73
6
74
0
42
0.000000001
43
0.0000000001
44
0.0000000001
40
-0.22605220101728493
40
-0.22605220101728493
40
-0.22605220101728493
40
-0.22605220101728493
40
-0.11317978512827163
40
-0.11317978512827163
40
0
40
0
40
0
40
0
10
-153.75568565615256
20
-103.43875240233039
30
0
10
-153.64675407631626
20
-103.79887324160657
30
0
10
-153.48763245001015
20
-104.14191734251055
30
0
10
-153.07915231721819
20
-104.77492275077276
30
0
10
-152.83132911868341
20
-105.06200356612099
30
0
10
-152.54768565615257
20
-105.31075240233038
30
0
0
SPLINE
5
207
100
AcDbEntity
8
0
100
AcDbSpline
70
0
71
3
72
8
73
4
74
0
42
0.000000001
43
0.0000000001
44
0.0000000001
40
0
40
0
40
0
40
0
40
1
40
1
40
1
40
1
10
-152.54768565615257
20
-105.31075240233038
30
0
10
-152.23468565615255
20
-105.58175240233039
30
0
10
-152.15868565615256
20
-106.0377524023304
30
0
10
-152.36668565615156
20
-106.3957524023304
30
-5.5511151231257827e-16
0
SPLINE
5
208
100
AcDbEntity
8
0
100
AcDbSpline
70
0
71
3
72
8
73
4
74
0
42
0.000000001
43
0.0000000001
44
0.0000000001
40
0
40
0
40
0
40
0
40
1
40
1
40
1
40
1
10
-152.36668565615156
20
-106.3957524023304
30
-5.5511151231257827e-16
10
-152.57368565615255
20
-106.7547524023304
30
-5.5511151231257827e-16
10
-153.00468565615157
20
-106.91575240233038
30
-5.5511151231257827e-16
10
-153.39768565615157
20
-106.7817524023304
30
-5.5511151231257827e-16
0
SPLINE
5
209
100
AcDbEntity
8
0
100
AcDbSpline
70
0
71
3
72
10
73
6
74
0
42
0.000000001
43
0.0000000001
44
0.0000000001
40
-0.22593657732533085
40
-0.22593657732533085
40
-0.22593657732533085
40
-0.22593657732533085
40
-0.11286630630940508
40
-0.11286630630940508
40
0
40
0
40
0
40
0
10
-153.39768565615157
20
-106.7817524023304
30
-5.5511151231257827e-16
10
-153.75437559804089
20
-106.66002884174176
30
-5.5511151231257827e-16
10
-154.12658754341419
20
-106.58863044337505
30
-5.5511151231257827e-16
10
-154.87860469054306
20
-106.55075691612123
30
-5.5511151231257827e-16
10
-155.25530978907167
20
-106.58424812941611
30
-5.5511151231257827e-16
10
-155.62168565615255
20
-106.6697524023304
30
-5.5511151231257827e-16
0
SPLINE
5
210
100
AcDbEntity
8
0
100
AcDbSpline
70
0
71
3
72
14
73
10
74
0
42
0.000000001
43
0.0000000001
44
0.0000000001
40
-0.086188746368798516
40
-0.086188746368798516
40
-0.086188746368798516
40
-0.086188746368798516
40
-0.064359585601443461
40
-0.064359585601443461
40
-0.042975840865825413
40
-0.042975840865825413
40
-0.021697980326997435
40
-0.021697980326997435
40
0
40
0
40
0
40
0
10
-155.62168565615255
20
-106.6697524023304
30
-5.5511151231257827e-16
10
-155.69249406763055
20
-106.68652930818581
30
-5.5511151231257827e-16
10
-155.76064640945899
20
-106.71256547252554
30
-5.5511151231257827e-16
10
-155.88698718539061
20
-106.78160429503745
30
-5.5511151231257827e-16
10
-155.94467981061049
20
-106.8238911697114
30
0
10
-156.04705788642246
20
-106.92244661804351
30
0
10
-156.09131502465243
20
-106.97817553619134
30
0
10
-156.16454818080868
20
-107.10120523929049
30
0
10
-156.19275928071113
20
-107.16794603057338
30
0
10
-156.21168565615255
20
-107.2377524023304
30
0
0
SPLINE
5
211
100
AcDbEntity
8
0
100
AcDbSpline
70
0
71
3
72
8
73
4
74
0
42
0.000000001
43
0.0000000001
44
0.0000000001
40
0
40
0
40
0
40
0
40
1
40
1
40
1
40
1
10
-156.21168565615255
20
-107.2377524023304
30
0
10
-156.22368565615156
20
-107.28075240233039
30
0
10
-156.23668565615256
20
-107.3247524023304
30
0
10
-156.24768565615156
20
-107.3687524023304
30
0
0
SPLINE
5
212
100
AcDbEntity
8
0
100
AcDbSpline
70
0
71
3
72
8
73
4
74
0
42
0.000000001
43
0.0000000001
44
0.0000000001
40
0
40
0
40
0
40
0
40
1
40
1
40
1
40
1
10
-156.24768565615156
20
-107.3687524023304
30
0
10
-156.32068565615256
20
-107.6517524023304
30
0
10
-156.23368565615255
20
-107.95375240233039
30
0
10
-156.01968565615255
20
-108.1547524023304
30
0
0
SPLINE
5
213
100
AcDbEntity
8
0
100
AcDbSpline
70
0
71
3
72
10
73
6
74
0
42
0.000000001
43
0.0000000001
44
0.0000000001
40
-0.22609179782753125
40
-0.22609179782753125
40
-0.22609179782753125
40
-0.22609179782753125
40
-0.11319455800778584
40
-0.11319455800778584
40
0
40
0
40
0
40
0
10
-156.01968565615255
20
-108.1547524023304
30
0
10
-155.74527006695939
20
-108.41226558204382
30
0
10
-155.435952734175
20
-108.62969917394155
30
0
10
-154.76522711971964
20
-108.97300841810113
30
0
10
-154.40692069494705
20
-109.09700096805852
30
0
10
-154.03668565615257
20
-109.1697524023304
30
0
0
SPLINE
5
214
100
AcDbEntity
8
0
100
AcDbSpline
70
0
71
3
72
8
73
4
74
0
42
0.000000001
43
0.0000000001
44
0.0000000001
40
0
40
0
40
0
40
0
40
1
40
1
40
1
40
1
10
-154.03668565615257
20
-109.1697524023304
30
0
10
-153.63068565615256
20
-109.2517524023304
30
0
10
-153.33668565615156
20
-109.60675240233039
30
0
10
-153.33668565615156
20
-110.0207524023304
30
0
0
SPLINE
5
215
100
AcDbEntity
8
0
100
AcDbSpline
70
0
71
3
72
8
73
4
74
0
42
0.000000001
43
0.0000000001
44
0.0000000001
40
0
40
0
40
0
40
0
40
1
40
1
40
1
40
1
10
-153.33668565615156
20
-110.0207524023304
30
0
10
-153.33668565615156
20
-110.4337524023304
30
0
10
-153.63068565615256
20
-110.7907524023304
30
0
10
-154.03668565615257
20
-110.8707524023304
30
0
0
ELLIPSE
5
216
100
AcDbEntity
8
0
100
AcDbEllipse
10
-153.32506517374372
20
-114.70580084728951
30
0
11
-3.4952259347031274
21
-1.8752835071475846
31
0.0
40
0.981709309489047
41
4.4087261714556556
42
4.9782434269420559
0
SPLINE
5
217
100
AcDbEntity
8
0
100
AcDbSpline
70
0
71
3
72
8
73
4
74
0
42
0.000000001
43
0.0000000001
44
0.0000000001
40
0
40
0
40
0
40
0
40
1
40
1
40
1
40
1
10
-156.01968565615255
20
-111.88775240233039
30
0
10
-156.23368565615255
20
-112.08775240233039
30
0
10
-156.32068565615256
20
-112.3887524023304
30
0
10
-156.24768565615156
20
-112.6727524023304
30
0
0
SPLINE
5
218
100
AcDbEntity
8
0
100
AcDbSpline
70
0
71
3
72
8
73
4
74
0
42
0.000000001
43
0.0000000001
44
0.0000000001
40
0
40
0
40
0
40
0
40
1
40
1
40
1
40
1
10
-156.24768565615156
20
-112.6727524023304
30
0
10
-156.23668565615256
20
-112.71575240233039
30
0
10
-156.22368565615156
20
-112.75975240233039
30
0
10
-156.21168565615255
20
-112.8027524023304
30
0
0
SPLINE
5
219
100
AcDbEntity
8
0
100
AcDbSpline
70
0
71
3
72
8
73
4
74
0
42
0.000000001
43
0.0000000001
44
0.0000000001
40
0
40
0
40
0
40
0
40
1
40
1
40
1
40
1
10
-156.21168565615255
20
-112.8027524023304
30
0
10
-156.13468565615156
20
-113.08675240233038
30
0
10
-155.90868565615256
20
-113.3037524023304
30
0
10
-155.62168565615255
20
-113.3707524023304
30
0
0
ELLIPSE
5
220
100
AcDbEntity
8
0
100
AcDbEllipse
10
-154.70033990045661
20
-109.62792801099822
30
0
11
-3.9422565223948727
21
-0.091985448279808563
31
0.0
40
0.97589340387317647
41
1.3121999687100168
42
1.8847018257127319
0
SPLINE
5
221
100
AcDbEntity
8
0
100
AcDbSpline
70
0
71
3
72
8
73
4
74
0
42
0.000000001
43
0.0000000001
44
0.0000000001
40
0
40
0
40
0
40
0
40
1
40
1
40
1
40
1
10
-153.39768565615157
20
-113.2587524023304
30
0
10
-153.00468565615157
20
-113.1247524023304
30
0
10
-152.57368565615255
20
-113.2877524023304
30
0
10
-152.36668565615156
20
-113.64575240233039
30
0
0
SPLINE
5
222
100
AcDbEntity
8
0
100
AcDbSpline
70
0
71
3
72
8
73
4
74
0
42
0.000000001
43
0.0000000001
44
0.0000000001
40
0
40
0
40
0
40
0
40
1
40
1
40
1
40
1
10
-152.36668565615156
20
-113.64575240233039
30
0
10
-152.15868565615256
20
-114.00475240233038
30
0
10
-152.23468565615255
20
-114.45875240233038
30
0
10
-152.54768565615257
20
-114.73075240233038
30
0
0
SPLINE
5
223
100
AcDbEntity
8
0
100
AcDbSpline
70
0
71
3
72
10
73
6
74
0
42
0.000000001
43
0.0000000001
44
0.0000000001
40
-0.22615509174709958
40
-0.22615509174709958
40
-0.22615509174709958
40
-0.22615509174709958
40
-0.1129337329410529
40
-0.1129337329410529
40
0
40
0
40
0
40
0
10
-152.54768565615257
20
-114.73075240233038
30
0
10
-152.83143007147538
20
-114.97958977183187
30
0
10
-153.07929071147009
20
-115.26675307819816
30
0
10
-153.48780147961429
20
-115.90014351046935
30
0
10
-153.64683093428457
20
-116.24338859705956
30
0
10
-153.75568565615256
20
-116.60375240233039
30
0
0
SPLINE
5
224
100
AcDbEntity
8
0
100
AcDbSpline
70
0
71
3
72
8
73
4
74
0
42
0.000000001
43
0.0000000001
44
0.0000000001
40
0
40
0
40
0
40
0
40
1
40
1
40
1
40
1
10
-153.75568565615256
20
-116.60375240233039
30
0
10
-153.84168565615255
20
-116.88475240233039
30
0
10
-153.76668565615256
20
-117.18875240233039
30
0
10
-153.56068565615254
20
-117.39675240233039
30
0
0
SPLINE
5
225
100
AcDbEntity
8
0
100
AcDbSpline
70
0
71
3
72
8
73
4
74
0
42
0.000000001
43
0.0000000001
44
0.0000000001
40
0
40
0
40
0
40
0
40
1
40
1
40
1
40
1
10
-153.56068565615254
20
-117.39675240233039
30
0
10
-153.52868565615157
20
-117.4287524023304
30
0
10
-153.49668565615156
20
-117.46175240233038
30
0
10
-153.46368565615256
20
-117.49175240233038
30
0
0
SPLINE
5
226
100
AcDbEntity
8
0
100
AcDbSpline
70
0
71
3
72
8
73
4
74
0
42
0.000000001
43
0.0000000001
44
0.0000000001
40
0
40
0
40
0
40
0
40
1
40
1
40
1
40
1
10
-153.46368565615256
20
-117.49175240233038
30
0
10
-153.25568565615256
20
-117.6987524023304
30
0
10
-152.95068565615156
20
-117.77475240233039
30
0
10
-152.66968565615156
20
-117.68875240233038
30
0
0
ELLIPSE
5
227
100
AcDbEntity
8
0
100
AcDbEllipse
10
-153.91011426848763
20
-113.67340721418898
30
0
11
-1.7144426245275757
21
3.8383726521085308
31
0.0
40
0.97955082504006286
41
3.0186532092233267
42
3.566308668644941
0
SPLINE
5
228
100
AcDbEntity
8
0
100
AcDbSpline
70
0
71
3
72
14
73
10
74
0
42
0.000000001
43
0.0000000001
44
0.0000000001
40
-0.079775962114805143
40
-0.079775962114805143
40
-0.079775962114805143
40
-0.079775962114805143
40
-0.059685822778817885
40
-0.059685822778817885
40
-0.039806917155272098
40
-0.039806917155272098
40
-0.020035206206198045
40
-0.020035206206198045
40
0
40
0
40
0
40
0
10
-150.79868565615257
20
-116.4787524023304
30
0
10
-150.754414191406
20
-116.42851175132589
30
0
10
-150.70451522322682
20
-116.38354664549064
30
0
10
-150.59600125103779
20
-116.30631686811262
30
0
10
-150.53780809365963
20
-116.27415471241559
30
0
10
-150.41565549614975
20
-116.22381204223399
30
0
10
-150.35206862604187
20
-116.20569788038355
30
0
10
-150.22117171878901
20
-116.18418529005368
30
0
10
-150.15430493158078
20
-116.18106437924465
30
0
10
-150.08768565615156
20
-116.18575240233039
30
0
0
LINE
5
229
100
AcDbEntity
8
0
100
AcDbLine
10
-150.08768565615159
20
-116.18575240233039
30
0
11
-150.08768565615156
21
-129.2783528680834
31
0
0
ARC
5
230
100
AcDbEntity
8
0
100
AcDbCircle
10
-152.08768565615156
20
-129.2783528680834
30
0
40
1.9999999999999971
210
8.3853994962985863e-34
220
1.3487442067872626e-33
230
1
100
AcDbArc
50
-45.906246840828338
51
0
0
LINE
5
231
100
AcDbEntity
8
0
100
AcDbLine
10
-150.69601666290126
20
-130.71475720295072
30
7.7037197775489485e-34
11
-155.14005267424454
21
-135.02038826500541
31
0
0
LINE
5
232
100
AcDbEntity
8
0
100
AcDbLine
10
-155.14005267424454
20
-135.02038826500541
30
0
11
-155.13768049213255
21
-135.02042576879438
31
-1.128299012476321e-27
0
LINE
5
233
100
AcDbEntity
8
0
100
AcDbLine
10
-155.13768049213255
20
-135.02042576879438
30
-1.128299012476321e-27
11
-155.28098591816055
21
-144.0847517086514
31
-1.9515062940486983e-28
0
ARC
5
234
100
AcDbEntity
8
0
100
AcDbCircle
10
-154.99033664325052
20
-143.12792204826548
30
-2.9763907811586691e-46
40
0.99999999999997513
210
-5.6720136912760599e-29
220
-1.8672598701248263e-28
230
1
100
AcDbArc
50
253.10316884299081
51
314.09375315915315
0
LINE
5
235
100
AcDbEntity
8
0
100
AcDbLine
10
-154.29450214662563
20
-143.84612421569932
30
-1.1555579666323545e-33
11
-143.29733947392356
21
-133.19145690940337
31
-1.8745307260314293e-27
0
ARC
5
236
100
AcDbEntity
8
0
100
AcDbCircle
10
-146.08067746042542
20
-130.31864823966944
30
-1.7276751086035953e-46
40
4.0000000000003482
210
3.2608997037747954e-28
220
-3.3657379784782854e-28
230
1
100
AcDbArc
50
314.09375315919164
51
356.60785682243124
0
CIRCLE
5
237
100
AcDbEntity
8
0
100
AcDbCircle
10
-146.08993083715455
20
-120.01658252841739
30
0
40
1.3200000000000001
210
-0
220
0
230
1
0
CIRCLE
5
238
100
AcDbEntity
8
0
100
AcDbCircle
10
-146.08819124598756
20
-110.0210244792994
30
0
40
1.3200000000000001
210
-0
220
0
230
1
0
CIRCLE
5
239
100
AcDbEntity
8
0
100
AcDbCircle
10
-122.84993219047452
20
-119.21002737802537
30
0
40
4.9871620122974818
210
0
220
0
230
1
0
CIRCLE
5
240
100
AcDbEntity
8
0
100
AcDbCircle
10
-122.84993219047452
20
-119.21002737802537
30
0
40
1.3500000000000003
210
0
220
-0
230
1
0
CIRCLE
5
241
100
AcDbEntity
8
0
100
AcDbCircle
10
-107.22155695300948
20
-119.76068375448237
30
0
40
4.9871620122974818
210
0
220
0
230
1
0
CIRCLE
5
242
100
AcDbEntity
8
0
100
AcDbCircle
10
-107.22155695300948
20
-119.76068375448237
30
0
40
1.3500000000000003
210
0
220
-0
230
1
0
CIRCLE
5
243
100
AcDbEntity
8
0
100
AcDbCircle
10
-108.70508330922948
20
-136.98297156099338
30
0
40
4.9871620122974818
210
0
220
0
230
1
0
CIRCLE
5
244
100
AcDbEntity
8
0
100
AcDbCircle
10
-108.70508330922948
20
-136.98297156099338
30
0
40
1.3500000000000003
210
0
220
-0
230
1
0
CIRCLE
5
245
100
AcDbEntity
8
0
100
AcDbCircle
10
-123.88212191396551
20
-136.62826147226338
30
0
40
4.9871620122974818
210
0
220
0
230
1
0
CIRCLE
5
246
100
AcDbEntity
8
0
100
AcDbCircle
10
-123.88212191396551
20
-136.62826147226338
30
0
40
1.3500000000000003
210
0
220
-0
230
1
0
LWPOLYLINE
5
247
100
AcDbEntity
8
0
100
AcDbPolyline
90
39
70
1
43
0.0
10
-38.203400025353552
20
-161.42099997141423
10
-32.072500025353548
20
-161.42099997141423
10
-32.072500025353548
20
-164.42099997141423
10
-26.699500025353551
20
-164.42099997141423
10
-26.699500025353537
20
-160.41999997141426
42
-0.41421356237309681
10
-23.699500025353547
20
-157.4199999714142
10
-13.700400025353547
20
-157.4199999714142
10
-13.700400025353547
20
-140.4209999714142
10
-21.19980002535355
20
-140.42099997141418
10
-21.199800025353547
20
-143.42099997141418
10
-50.200600025353538
20
-143.4209999714142
10
-50.200600025353552
20
-147.42099997141423
10
-48.949300025353551
20
-147.42099997141423
10
-48.949300025353551
20
-149.9209999714142
10
-50.200600025353559
20
-149.9209999714142
10
-50.200600025353552
20
-153.4209999714142
10
-53.200700025353555
20
-153.4209999714142
10
-53.200700025353555
20
-149.9209999714142
10
-54.450500025353548
20
-149.9209999714142
10
-54.450500025353563
20
-147.42099997141423
10
-53.200700025353562
20
-147.42099997141423
10
-53.200700025353555
20
-143.4209999714142
10
-68.699200025353548
20
-143.4209999714142
10
-68.699200025353562
20
-140.4209999714142
10
-73.700200025353567
20
-140.42099997141418
10
-73.700200025353567
20
-164.42099997141418
10
-65.699200025353562
20
-164.42099997141423
10
-65.699200025353562
20
-161.42099997141423
10
-41.203500025353549
20
-161.42099997141423
10
-41.203500025353549
20
-157.4209999714142
10
-42.454700025353553
20
-157.42099997141418
10
-42.454700025353553
20
-154.9209999714142
10
-41.203500025353549
20
-154.9209999714142
10
-41.203500025353549
20
-151.42099997141423
10
-38.203400025353552
20
-151.4209999714142
10
-38.203400025353552
20
-154.9209999714142
10
-36.953500025353549
20
-154.9209999714142
10
-36.953500025353549
20
-157.42099997141418
10
-38.203400025353552
20
-157.42099997141418
0
LWPOLYLINE
5
248
100
AcDbEntity
8
0
100
AcDbPolyline
90
4
70
1
43
0.0
10
-30.622800025353548
20
-148.92999997141419
10
-28.295200025353552
20
-148.92999997141419
10
-28.295200025353552
20
-150.62399997141421
10
-30.622800025353548
20
-150.62399997141421
0
LWPOLYLINE
5
249
100
AcDbEntity
8
0
100
AcDbPolyline
90
4
70
1
43
0.0
10
-30.675200025353547
20
-154.16799997141419
10
-28.347600025353547
20
-154.16799997141419
10
-28.347600025353547
20
-155.86199997141418
10
-30.675200025353547
20
-155.86199997141418
0
LWPOLYLINE
5
250
100
AcDbEntity
8
0
100
AcDbPolyline
90
8
70
1
43
0.0
10
-70.700200025353553
20
-155.91999997141417
10
-70.700200025353567
20
-148.92099997141418
42
-0.41421356237308982
10
-68.700200025353567
20
-146.92099997141418
10
-59.950800025353558
20
-146.92099997141418
42
-0.41421356237309243
10
-57.950800025353558
20
-148.92099997141418
10
-57.950800025353544
20
-155.9199999714142
42
-0.41421356237308982
10
-59.950800025353558
20
-157.91999997141417
10
-68.700200025353567
20
-157.91999997141414
42
-0.41421356237309243
0
LWPOLYLINE
5
251
100
AcDbEntity
8
0
100
AcDbPolyline
90
8
70
1
43
0.0
10
-51.644883815522043
20
-180.29899997141442
10
-51.644883815522043
20
-180.29799997141441
42
0.41421356237309503
10
-64.144883815522078
20
-167.79799997141441
10
-78.134794500802514
20
-167.79799997141441
42
0.41421356237309481
10
-90.634794500802514
20
-180.29799997141441
10
-90.634794500802542
20
-180.29899997141442
42
0.41421356237309503
10
-78.134794500802499
20
-192.79899997141442
10
-64.144883815522064
20
-192.79899997141442
42
0.41421356237309481
0
LWPOLYLINE
5
252
100
AcDbEntity
8
0
100
AcDbPolyline
90
8
70
1
43
0.0
10
-84.646000025353544
20
-182.79799997141441
10
-84.646000025353544
20
-177.79899997141442
10
-82.645100025353571
20
-177.79899997141442
10
-82.645100025353585
20
-174.19799997141442
10
-59.645600025353559
20
-174.19799997141442
10
-59.645600025353545
20
-186.39799997141441
10
-82.645100025353585
20
-186.39799997141441
10
-82.645100025353585
20
-182.79799997141441
0
CIRCLE
5
253
100
AcDbEntity
8
0
100
AcDbCircle
10
-71.160299336818724
20
-170.79749997141442
30
0
40
1.3
210
1.5407439555097887e-33
220
1.5407439555097887e-33
230
1
0
CIRCLE
5
254
100
AcDbEntity
8
0
100
AcDbCircle
10
-71.160299336818724
20
-189.79849997141443
30
0
40
1.3
210
1.5407439555097887e-33
220
1.5407439555097887e-33
230
1
0
LWPOLYLINE
5
255
100
AcDbEntity
8
0
100
AcDbPolyline
90
6
70
1
43
0.0
10
-101.32002256988835
20
-162.77568040517735
42
0.41421356237309503
10
-98.320022569888351
20
-159.77568040517735
42
0.41411593466801688
10
-101.32002240322169
20
-156.77668040517739
10
-118.29425555689873
20
-156.77668040517736
42
0.41421356237309503
10
-121.29425555689875
20
-159.77668040517736
42
0.41411593466801511
10
-118.2942557235654
20
-162.77568040517735
0
CIRCLE
5
256
100
AcDbEntity
8
0
100
AcDbCircle
10
-101.32002240322169
20
-159.77668040517736
30
0
40
1.3500000000000003
210
0
220
0
230
1
0
CIRCLE
5
257
100
AcDbEntity
8
0
100
AcDbCircle
10
-118.29425555689873
20
-159.77668040517736
30
0
40
1.3500000000000003
210
0
220
-0
230
1
0
LWPOLYLINE
5
258
100
AcDbEntity
8
0
100
AcDbPolyline
90
8
70
1
43
0.0
10
-94.402283815521741
20
-180.29899997141442
10
-94.402283815521741
20
-180.29799997141441
42
0.41421356237309503
10
-106.90228381552177
20
-167.79799997141441
10
-120.8921945008022
20
-167.79799997141441
42
0.41421356237309548
10
-133.39219450080222
20
-180.29799997141441
10
-133.39219450080225
20
-180.29899997141442
42
0.41421356237309503
10
-120.89219450080222
20
-192.79899997141442
10
-106.9022838155218
20
-192.79899997141442
42
0.41421356237309548
0
LWPOLYLINE
5
259
100
AcDbEntity
8
0
100
AcDbPolyline
90
8
70
1
43
0.0
10
-127.40340002535325
20
-182.79799997141441
10
-127.40340002535325
20
-177.79899997141442
10
-125.40250002535328
20
-177.79899997141442
10
-125.40250002535329
20
-174.19799997141442
10
-102.40300002535326
20
-174.19799997141442
10
-102.40300002535324
20
-186.39799997141441
10
-125.40250002535328
20
-186.39799997141441
10
-125.40250002535329
20
-182.79799997141441
0
CIRCLE
5
260
100
AcDbEntity
8
0
100
AcDbCircle
10
-113.91769933681843
20
-170.79749997141442
30
0
40
1.3
210
1.5407439555097887e-33
220
1.5407439555097887e-33
230
1
0
CIRCLE
5
261
100
AcDbEntity
8
0
100
AcDbCircle
10
-113.91769933681843
20
-189.79849997141443
30
5.5511151231257827e-16
40
1.3
210
1.5407439555097887e-33
220
1.5407439555097887e-33
230
1
0
LINE
5
262
100
AcDbEntity
8
0
100
AcDbLine
10
-136.91592605646667
20
-187.66099997141504
30
0
11
-136.9320394827634
21
-187.61277036971083
31
0
0
SPLINE
5
263
100
AcDbEntity
8
0
100
AcDbSpline
70
0
71
3
72
8
73
4
74
0
42
0.000000001
43
0.0000000001
44
0.0000000001
40
0
40
0
40
0
40
0
40
1
40
1
40
1
40
1
10
-136.9320394827634
20
-187.6127703697108
30
0
10
-141.66091996018588
20
-173.441222247838
30
0
10
-141.65554655416932
20
-158.11492492610469
30
0
10
-136.91392605646666
20
-143.94599997141501
30
0
0
SPLINE
5
264
100
AcDbEntity
8
0
100
AcDbSpline
70
0
71
3
72
8
73
4
74
0
42
0.000000001
43
0.0000000001
44
0.0000000001
40
0
40
0
40
0
40
0
40
1
40
1
40
1
40
1
10
-136.91392605646666
20
-143.94599997141501
30
0
10
-136.42892605646668
20
-142.491999971415
30
0
10
-136.81492605646667
20
-140.88799997141501
30
0
10
-137.91192605646668
20
-139.81599997141498
30
0
0
SPLINE
5
265
100
AcDbEntity
8
0
100
AcDbSpline
70
0
71
3
72
8
73
4
74
0
42
0.000000001
43
0.0000000001
44
0.0000000001
40
0
40
0
40
0
40
0
40
1
40
1
40
1
40
1
10
-137.91192605646668
20
-139.81599997141498
30
0
10
-139.00692605646665
20
-138.74499997141501
30
0
10
-140.61992605646668
20
-138.39399997141501
30
0
10
-142.06092605646666
20
-138.91299997141491
30
0
0
SPLINE
5
266
100
AcDbEntity
8
0
100
AcDbSpline
70
0
71
3
72
8
73
4
74
0
42
0.000000001
43
0.0000000001
44
0.0000000001
40
0
40
0
40
0
40
0
40
1
40
1
40
1
40
1
10
-142.06092605646666
20
-138.91299997141491
30
0
10
-143.50392605646672
20
-139.43099997141499
30
0
10
-144.52392605646668
20
-140.72799997141499
30
0
10
-144.68692605646666
20
-142.25199997141499
30
0
0
SPLINE
5
267
100
AcDbEntity
8
0
100
AcDbSpline
70
0
71
3
72
8
73
4
74
0
42
0.000000001
43
0.0000000001
44
0.0000000001
40
0
40
0
40
0
40
0
40
1
40
1
40
1
40
1
10
-144.68692605646666
20
-142.25199997141499
30
0
10
-146.04192605646665
20
-154.991999971415
30
0
10
-151.71792605646664
20
-166.88299997141502
30
0
10
-160.76992605646666
20
-175.94899997141505
30
0
0
SPLINE
5
268
100
AcDbEntity
8
0
100
AcDbSpline
70
0
71
3
72
8
73
4
74
0
42
0.000000001
43
0.0000000001
44
0.0000000001
40
0
40
0
40
0
40
0
40
1
40
1
40
1
40
1
10
-160.76992605646666
20
-175.94899997141505
30
0
10
-161.95892605646665
20
-177.13999997141499
30
0
10
-162.27392605646668
20
-178.94799997141504
30
0
10
-161.56092605646666
20
-180.47199997141502
30
0
0
SPLINE
5
269
100
AcDbEntity
8
0
100
AcDbSpline
70
0
71
3
72
8
73
4
74
0
42
0.000000001
43
0.0000000001
44
0.0000000001
40
0
40
0
40
0
40
0
40
1
40
1
40
1
40
1
10
-161.56092605646666
20
-180.47199997141502
30
0
10
-160.84692605646666
20
-181.99599997141502
30
0
10
-159.25492605646664
20
-182.909999971415
30
0
10
-157.57892605646666
20
-182.759999971415
30
0
0
SPLINE
5
270
100
AcDbEntity
8
0
100
AcDbSpline
70
0
71
3
72
8
73
4
74
0
42
0.000000001
43
0.0000000001
44
0.0000000001
40
0
40
0
40
0
40
0
40
1
40
1
40
1
40
1
10
-157.57892605646666
20
-182.759999971415
30
0
10
-151.96092605646666
20
-182.25199997141502
30
0
10
-146.64592605646669
20
-185.385999971415
30
0
10
-144.36792605646667
20
-190.546999971415
30
0
0
SPLINE
5
271
100
AcDbEntity
8
0
100
AcDbSpline
70
0
71
3
72
8
73
4
74
0
42
0.000000001
43
0.0000000001
44
0.0000000001
40
0
40
0
40
0
40
0
40
1
40
1
40
1
40
1
10
-144.36792605646667
20
-190.546999971415
30
0
10
-143.50392605646672
20
-192.50099997141501
30
0
10
-141.25792605646669
20
-193.432999971415
30
0
10
-139.26392605646669
20
-192.66099997141504
30
0
0
SPLINE
5
272
100
AcDbEntity
8
0
100
AcDbSpline
70
0
71
3
72
8
73
4
74
0
42
0.000000001
43
0.0000000001
44
0.0000000001
40
0
40
0
40
0
40
0
40
1
40
1
40
1
40
1
10
-139.26392605646669
20
-192.66099997141504
30
0
10
-137.27092605646669
20
-191.88899997141502
30
0
10
-136.23592605646667
20
-189.68799997141502
30
0
10
-136.91392605646666
20
-187.66099997141504
30
0
0
LINE
5
273
100
AcDbEntity
8
0
100
AcDbLine
10
-136.91392605646664
20
-187.66099997141504
30
0
11
-136.91592605646667
21
-187.66099997141504
31
0
0
CIRCLE
5
274
100
AcDbEntity
8
0
100
AcDbCircle
10
-140.70792605646665
20
-188.930499971415
30
0
40
1.3
210
1.5407439555097887e-33
220
1.5407439555097887e-33
230
1
0
CIRCLE
5
275
100
AcDbEntity
8
0
100
AcDbCircle
10
-140.70792605646665
20
-142.67649997141498
30
0
40
1.3
210
1.5407439555097887e-33
220
1.5407439555097887e-33
230
1
0
CIRCLE
5
276
100
AcDbEntity
8
0
100
AcDbCircle
10
-157.93842605646665
20
-178.77549997141497
30
0
40
1.3500000000000001
210
0
220
0
230
1
0
LINE
5
277
100
AcDbEntity
8
0
100
AcDbLine
10
-176.13563364089856
20
-153.124775340658
30
0
11
-185.91566322439826
21
-153.124775340658
31
0
0
ARC
5
278
100
AcDbEntity
8
0
100
AcDbCircle
10
-185.91566322439826
20
-157.12477534065798
30
0
40
3.9999999999999858
210
0
220
-0
230
1
100
AcDbArc
50
90
51
135.90624684081911
0
LINE
5
279
100
AcDbEntity
8
0
100
AcDbLine
10
-188.78847189413247
20
-154.34143735415688
30
0
11
-199.49711783988488
21
-165.39431381518082
31
0
0
ARC
5
280
100
AcDbEntity
8
0
100
AcDbCircle
10
-198.77891567245138
20
-166.09014831180613
30
0
40
0.99999999999999489
210
-1.0721027947106475e-33
220
-1.1065656483072162e-33
230
1
100
AcDbArc
50
135.90624684081567
51
206.05011224936638
0
LINE
5
281
100
AcDbEntity
8
0
100
AcDbLine
10
-199.67732596521068
20
-166.5293053974419
30
-1.7108085454523329e-33
11
-190.61332665888949
21
-166.38600513543352
31
0
0
LINE
5
282
100
AcDbEntity
8
0
100
AcDbLine
10
-190.61332665888949
20
-166.38600513543352
30
0
11
-186.08062314543082
21
-161.70759740559538
31
0
0
ARC
5
283
100
AcDbEntity
8
0
100
AcDbCircle
10
-184.64421881056376
20
-163.09926639884594
30
0
40
1.9999999999999574
210
0
220
-0
230
1
100
AcDbArc
50
90
51
135.90624684081797
0
LINE
5
284
100
AcDbEntity
8
0
100
AcDbLine
10
-184.64421881056376
20
-161.099266398846
30
0
11
-176.13532001091815
21
-161.09926639884594
31
0
0
LINE
5
285
100
AcDbEntity
8
0
100
AcDbLine
10
-176.13527298680617
20
-161.10521049803771
30
0
11
-174.54200002535373
21
-161.07999997141366
31
0
0
ELLIPSE
5
286
100
AcDbEntity
8
0
100
AcDbEllipse
10
-164.17355576324766
20
-164.93091515957587
30
0
11
-11.030414432008602
21
2.4625103401952582
31
0.0
40
0.54214904043716838
41
6.035988399462207
42
6.106934482339974
0
SPLINE
5
287
100
AcDbEntity
8
0
100
AcDbSpline
70
0
71
3
72
8
73
4
74
0
42
0.000000001
43
0.0000000001
44
0.0000000001
40
0
40
0
40
0
40
0
40
1
40
1
40
1
40
1
10
-174.80300002535375
20
-162.27599997141368
30
0
10
-174.95200002535373
20
-162.02299997141367
30
0
10
-174.95000002535375
20
-161.70999997141368
30
0
10
-174.79900002535376
20
-161.45799997141367
30
0
0
SPLINE
5
288
100
AcDbEntity
8
0
100
AcDbSpline
70
0
71
3
72
8
73
4
74
0
42
0.000000001
43
0.0000000001
44
0.0000000001
40
0
40
0
40
0
40
0
40
1
40
1
40
1
40
1
10
-174.73300002535376
20
-162.39199997141367
30
0
10
-174.75600002535376
20
-162.35399997141371
30
0
10
-174.78000002535373
20
-162.3149999714137
30
0
10
-174.80300002535375
20
-162.27599997141368
30
0
0
SPLINE
5
289
100
AcDbEntity
8
0
100
AcDbSpline
70
0
71
3
72
8
73
4
74
0
42
0.000000001
43
0.0000000001
44
0.0000000001
40
0
40
0
40
0
40
0
40
1
40
1
40
1
40
1
10
-174.01000002535375
20
-162.77499997141371
30
0
10
-174.30400002535379
20
-162.78999997141366
30
0
10
-174.58100002535375
20
-162.64299997141367
30
0
10
-174.73300002535376
20
-162.39199997141367
30
0
0
SPLINE
5
290
100
AcDbEntity
8
0
100
AcDbSpline
70
0
71
3
72
10
73
6
74
0
42
0.000000001
43
0.0000000001
44
0.0000000001
40
0
40
0
40
0
40
0
40
0.11333582781027166
40
0.11333582781027166
40
0.22606247422628292
40
0.22606247422628292
40
0.22606247422628292
40
0.22606247422628292
10
-171.90100002535374
20
-162.0589999714137
30
0
10
-172.21168459508607
20
-162.27393584549816
30
0
10
-172.55056983887212
20
-162.44495867412826
30
0
10
-173.26394963493129
20
-162.68715321419484
30
0
10
-173.63465733537808
20
-162.75762299502591
30
0
10
-174.01000002535375
20
-162.77499997141371
30
0
0
SPLINE
5
291
100
AcDbEntity
8
0
100
AcDbSpline
70
0
71
3
72
8
73
4
74
0
42
0.000000001
43
0.0000000001
44
0.0000000001
40
0
40
0
40
0
40
0
40
1
40
1
40
1
40
1
10
-170.80400002535379
20
-162.1479999714137
30
0
10
-171.10100002535376
20
-161.85999997141369
30
0
10
-171.56000002535379
20
-161.82199997141367
30
0
10
-171.90100002535374
20
-162.0589999714137
30
0
0
SPLINE
5
292
100
AcDbEntity
8
0
100
AcDbSpline
70
0
71
3
72
8
73
4
74
0
42
0.000000001
43
0.0000000001
44
0.0000000001
40
0
40
0
40
0
40
0
40
1
40
1
40
1
40
1
10
-170.68000002535376
20
-163.24099997141363
30
0
10
-170.45400002535376
20
-162.89399997141371
30
0
10
-170.50600002535376
20
-162.43599997141365
30
0
10
-170.80400002535379
20
-162.1479999714137
30
0
0
ELLIPSE
5
293
100
AcDbEntity
8
0
100
AcDbEllipse
10
-167.18174697038503
20
-165.4942137103001
30
0
11
-3.652467612278075
21
1.9941537911236609
31
0.0
40
0.98691738051671452
41
6.2097612192532754
42
6.7590625582728485
0
SPLINE
5
294
100
AcDbEntity
8
0
100
AcDbSpline
70
0
71
3
72
8
73
4
74
0
42
0.000000001
43
0.0000000001
44
0.0000000001
40
0
40
0
40
0
40
0
40
1
40
1
40
1
40
1
10
-170.92400002535379
20
-166.08199997141361
30
0
10
-171.17800002535375
20
-165.93899997141369
30
0
10
-171.33400002535379
20
-165.6659999714137
30
0
10
-171.33000002535374
20
-165.37299997141361
30
0
0
SPLINE
5
295
100
AcDbEntity
8
0
100
AcDbSpline
70
0
71
3
72
8
73
4
74
0
42
0.000000001
43
0.0000000001
44
0.0000000001
40
0
40
0
40
0
40
0
40
1
40
1
40
1
40
1
10
-170.80500002535376
20
-166.14899997141373
30
0
10
-170.84500002535376
20
-166.12699997141374
30
0
10
-170.88400002535377
20
-166.10599997141372
30
0
10
-170.92400002535379
20
-166.08199997141361
30
0
0
SPLINE
5
296
100
AcDbEntity
8
0
100
AcDbSpline
70
0
71
3
72
8
73
4
74
0
42
0.000000001
43
0.0000000001
44
0.0000000001
40
0
40
0
40
0
40
0
40
1
40
1
40
1
40
1
10
-169.98800002535376
20
-166.1199999714137
30
0
10
-170.23500002535374
20
-166.27799997141364
30
0
10
-170.54700002535378
20
-166.28899997141363
30
0
10
-170.80500002535376
20
-166.14899997141373
30
0
0
SPLINE
5
297
100
AcDbEntity
8
0
100
AcDbSpline
70
0
71
3
72
10
73
6
74
0
42
0.000000001
43
0.0000000001
44
0.0000000001
40
0
40
0
40
0
40
0
40
0.11288040341264566
40
0.11288040341264566
40
0.22618248846135569
40
0.22618248846135569
40
0.22618248846135569
40
0.22618248846135569
10
-168.51900002535376
20
-164.44399997141372
30
0
10
-168.67907017369998
20
-164.78452187084588
30
0
10
-168.88632306137552
20
-165.10060578104827
30
0
10
-169.38318443117043
20
-165.66747753545127
30
0
10
-169.67063744856179
20
-165.91523385043803
30
0
10
-169.98800002535376
20
-166.1199999714137
30
0
0
SPLINE
5
298
100
AcDbEntity
8
0
100
AcDbSpline
70
0
71
3
72
8
73
4
74
0
42
0.000000001
43
0.0000000001
44
0.0000000001
40
0
40
0
40
0
40
0
40
1
40
1
40
1
40
1
10
-167.52400002535379
20
-163.97299997141371
30
0
10
-167.92600002535377
20
-163.87199997141374
30
0
10
-168.34200002535374
20
-164.06899997141363
30
0
10
-168.51900002535376
20
-164.44399997141372
30
0
0
SPLINE
5
299
100
AcDbEntity
8
0
100
AcDbSpline
70
0
71
3
72
8
73
4
74
0
42
0.000000001
43
0.0000000001
44
0.0000000001
40
0
40
0
40
0
40
0
40
1
40
1
40
1
40
1
10
-166.87000002535376
20
-164.8579999714137
30
0
10
-166.84900002535375
20
-164.4439999714136
30
0
10
-167.12300002535375
20
-164.07299997141371
30
0
10
-167.52400002535379
20
-163.97299997141371
30
0
0
SPLINE
5
300
100
AcDbEntity
8
0
100
AcDbSpline
70
0
71
3
72
10
73
6
74
0
42
0.000000001
43
0.0000000001
44
0.0000000001
40
0
40
0
40
0
40
0
40
0.11321757374976564
40
0.11321757374976564
40
0.22611380221889588
40
0.22611380221889588
40
0.22611380221889588
40
0.22611380221889588
10
-166.36800002535378
20
-167.02899997141373
30
0
10
-166.5503885446667
20
-166.69860765364189
30
0
10
-166.68619991253595
20
-166.34456628150576
30
0
10
-166.85596729411404
20
-165.610381938107
30
0
10
-166.88938737078874
20
-165.23381620599937
30
0
10
-166.87000002535376
20
-164.8579999714137
30
0
0
SPLINE
5
301
100
AcDbEntity
8
0
100
AcDbSpline
70
0
71
3
72
8
73
4
74
0
42
0.000000001
43
0.0000000001
44
0.0000000001
40
0
40
0
40
0
40
0
40
1
40
1
40
1
40
1
10
-165.66100002535376
20
-167.43999997141373
30
0
10
-165.95400002535374
20
-167.44299997141371
30
0
10
-166.22500002535375
20
-167.28499997141364
30
0
10
-166.36800002535378
20
-167.02899997141373
30
0
0
SPLINE
5
302
100
AcDbEntity
8
0
100
AcDbSpline
70
0
71
3
72
8
73
4
74
0
42
0.000000001
43
0.0000000001
44
0.0000000001
40
0
40
0
40
0
40
0
40
1
40
1
40
1
40
1
10
-165.52400002535376
20
-167.43899997141372
30
0
10
-165.57000002535375
20
-167.43999997141373
30
0
10
-165.61500002535377
20
-167.43999997141373
30
0
10
-165.66100002535376
20
-167.43999997141373
30
0
0
SPLINE
5
303
100
AcDbEntity
8
0
100
AcDbSpline
70
0
71
3
72
8
73
4
74
0
42
0.000000001
43
0.0000000001
44
0.0000000001
40
0
40
0
40
0
40
0
40
1
40
1
40
1
40
1
10
-164.83100002535377
20
-167.00399997141372
30
0
10
-164.96500002535379
20
-167.26499997141363
30
0
10
-165.23200002535376
20
-167.43199997141363
30
0
10
-165.52400002535376
20
-167.43899997141372
30
0
0
ELLIPSE
5
304
100
AcDbEntity
8
0
100
AcDbEllipse
10
-168.55445604993719
20
-165.12360221332193
30
0
11
-4.0553395378963906
21
0.99051160614220135
31
0.0
40
0.98523168405525852
41
2.9102011259900276
42
3.4586682436576686
0
SPLINE
5
305
100
AcDbEntity
8
0
100
AcDbSpline
70
0
71
3
72
8
73
4
74
0
42
0.000000001
43
0.0000000001
44
0.0000000001
40
0
40
0
40
0
40
0
40
1
40
1
40
1
40
1
10
-163.77100002535374
20
-163.91399997141374
30
0
10
-164.17000002535377
20
-164.02599997141374
30
0
10
-164.43100002535377
20
-164.40499997141362
30
0
10
-164.39700002535375
20
-164.81899997141363
30
0
0
SPLINE
5
306
100
AcDbEntity
8
0
100
AcDbSpline
70
0
71
3
72
8
73
4
74
0
42
0.000000001
43
0.0000000001
44
0.0000000001
40
0
40
0
40
0
40
0
40
1
40
1
40
1
40
1
10
-162.76300002535376
20
-164.3529999714136
30
0
10
-162.95000002535377
20
-163.98399997141371
30
0
10
-163.37300002535375
20
-163.79899997141371
30
0
10
-163.77100002535374
20
-163.91399997141374
30
0
0
SPLINE
5
307
100
AcDbEntity
8
0
100
AcDbSpline
70
0
71
3
72
10
73
6
74
0
42
0.000000001
43
0.0000000001
44
0.0000000001
40
0
40
0
40
0
40
0
40
0.11288808831136896
40
0.11288808831136896
40
0.22612256607136486
40
0.22612256607136486
40
0.22612256607136486
40
0.22612256607136486
10
-161.24200002535375
20
-165.98099997141372
30
0
10
-161.56488809716689
20
-165.78776387920556
30
0
10
-161.85879524811216
20
-165.55011270132246
30
0
10
-162.3732539185892
20
-164.99945899694376
30
0
10
-162.59101795562015
20
-164.68898813083527
30
0
10
-162.76300002535376
20
-164.3529999714136
30
0
0
SPLINE
5
308
100
AcDbEntity
8
0
100
AcDbSpline
70
0
71
3
72
8
73
4
74
0
42
0.000000001
43
0.0000000001
44
0.0000000001
40
0
40
0
40
0
40
0
40
1
40
1
40
1
40
1
10
-160.42300002535376
20
-165.98499997141363
30
0
10
-160.67700002535375
20
-166.1339999714136
30
0
10
-160.99100002535377
20
-166.13199997141373
30
0
10
-161.24200002535375
20
-165.98099997141372
30
0
0
SPLINE
5
309
100
AcDbEntity
8
0
100
AcDbSpline
70
0
71
3
72
8
73
4
74
0
42
0.000000001
43
0.0000000001
44
0.0000000001
40
0
40
0
40
0
40
0
40
1
40
1
40
1
40
1
10
-160.30900002535387
20
-165.91499997141372
30
0
10
-160.34600002535376
20
-165.93899997141369
30
0
10
-160.38400002535377
20
-165.96099997141374
30
0
10
-160.42300002535376
20
-165.98499997141363
30
0
0
SPLINE
5
310
100
AcDbEntity
8
0
100
AcDbSpline
70
0
71
3
72
14
73
10
74
0
42
0.000000001
43
0.0000000001
44
0.0000000001
40
0
40
0
40
0
40
0
40
0.021805141628232841
40
0.021805141628232841
40
0.043193162879319305
40
0.043193162879319305
40
0.064491087988540696
40
0.064491087988540696
40
0.086236027818808861
40
0.086236027818808861
40
0.086236027818808861
40
0.086236027818808861
10
-159.92400002535376
20
-165.19199997141371
30
0
10
-159.92054280928852
20
-165.26460150878376
30
0
10
-159.92679310408039
20
-165.33720594258043
30
0
10
-159.95844615485191
20
-165.47758156524498
30
0
10
-159.98331770372664
20
-165.54466738527313
30
0
10
-160.0501430151115
20
-165.67016943864107
30
0
10
-160.09170858904486
20
-165.72802309774713
30
0
10
-160.19022472822382
20
-165.83222458464638
30
0
10
-160.24686651812661
20
-165.87767074968039
30
0
10
-160.30900002535387
20
-165.91499997141372
30
0
0
SPLINE
5
311
100
AcDbEntity
8
0
100
AcDbSpline
70
0
71
3
72
10
73
6
74
0
42
0.000000001
43
0.0000000001
44
0.0000000001
40
0
40
0
40
0
40
0
40
0.11309113121821794
40
0.11309113121821794
40
0.22617918592675382
40
0.22617918592675382
40
0.22617918592675382
40
0.22617918592675382
10
-160.64100002535378
20
-163.08199997141369
30
0
10
-160.42619204249721
20
-163.3917809281721
30
0
10
-160.25576790104427
20
-163.72986524835875
30
0
10
-160.01326529765177
20
-164.44355124374437
30
0
10
-159.94242647295545
20
-164.81550282582302
30
0
10
-159.92400002535376
20
-165.19199997141371
30
0
0
SPLINE
5
312
100
AcDbEntity
8
0
100
AcDbSpline
70
0
71
3
72
8
73
4
74
0
42
0.000000001
43
0.0000000001
44
0.0000000001
40
0
40
0
40
0
40
0
40
1
40
1
40
1
40
1
10
-160.55100002535374
20
-161.98599997141369
30
0
10
-160.84100002535376
20
-162.28299997141366
30
0
10
-160.87800002535377
20
-162.74199997141366
30
0
10
-160.64100002535378
20
-163.08199997141369
30
0
0
SPLINE
5
313
100
AcDbEntity
8
0
100
AcDbSpline
70
0
71
3
72
8
73
4
74
0
42
0.000000001
43
0.0000000001
44
0.0000000001
40
0
40
0
40
0
40
0
40
1
40
1
40
1
40
1
10
-159.45800002535375
20
-161.8619999714137
30
0
10
-159.80600002535374
20
-161.63699997141367
30
0
10
-160.26400002535377
20
-161.68799997141366
30
0
10
-160.55100002535374
20
-161.98599997141369
30
0
0
SPLINE
5
314
100
AcDbEntity
8
0
100
AcDbSpline
70
0
71
3
72
10
73
6
74
0
42
0.000000001
43
0.0000000001
44
0.0000000001
40
0
40
0
40
0
40
0
40
0.11323392168831606
40
0.11323392168831606
40
0.22608602278546669
40
0.22608602278546669
40
0.22608602278546669
40
0.22608602278546669
10
-157.32700002535375
20
-162.5119999714137
30
0
10
-157.70438189852135
20
-162.50502065011335
30
0
10
-158.07902968261567
20
-162.44581888327474
30
0
10
-158.79971562315552
20
-162.22599706214447
30
0
10
-159.14243261336867
20
-162.06674607178826
30
0
10
-159.45800002535375
20
-161.8619999714137
30
0
0
SPLINE
5
315
100
AcDbEntity
8
0
100
AcDbSpline
70
0
71
3
72
8
73
4
74
0
42
0.000000001
43
0.0000000001
44
0.0000000001
40
0
40
0
40
0
40
0
40
1
40
1
40
1
40
1
10
-156.61700002535378
20
-162.10599997141367
30
0
10
-156.76100002535375
20
-162.35999997141366
30
0
10
-157.03400002535378
20
-162.51599997141366
30
0
10
-157.32700002535375
20
-162.5119999714137
30
0
0
SPLINE
5
316
100
AcDbEntity
8
0
100
AcDbSpline
70
0
71
3
72
8
73
4
74
0
42
0.000000001
43
0.0000000001
44
0.0000000001
40
0
40
0
40
0
40
0
40
1
40
1
40
1
40
1
10
-156.55100002535374
20
-161.9869999714137
30
0
10
-156.57300002535376
20
-162.02699997141366
30
0
10
-156.59500002535376
20
-162.06499997141367
30
0
10
-156.61700002535378
20
-162.10599997141367
30
0
0
SPLINE
5
317
100
AcDbEntity
8
0
100
AcDbSpline
70
0
71
3
72
8
73
4
74
0
42
0.000000001
43
0.0000000001
44
0.0000000001
40
0
40
0
40
0
40
0
40
1
40
1
40
1
40
1
10
-156.58000002535377
20
-161.16999997141366
30
0
10
-156.42100002535375
20
-161.4169999714137
30
0
10
-156.41000002535375
20
-161.72899997141369
30
0
10
-156.55100002535374
20
-161.9869999714137
30
0
0
SPLINE
5
318
100
AcDbEntity
8
0
100
AcDbSpline
70
0
71
3
72
10
73
6
74
0
42
0.000000001
43
0.0000000001
44
0.0000000001
40
0
40
0
40
0
40
0
40
0.11300187530581156
40
0.11300187530581156
40
0.22631319933824628
40
0.22631319933824628
40
0.22631319933824628
40
0.22631319933824628
10
-158.25700002535376
20
-159.70099997141369
30
0
10
-157.91593220405207
20
-159.86085999828288
30
0
10
-157.59935826696906
20
-160.06795508144623
30
0
10
-157.03203667880385
20
-160.56491474189659
30
0
10
-156.78441729202427
20
-160.8524053400256
30
0
10
-156.58000002535377
20
-161.16999997141366
30
0
0
SPLINE
5
319
100
AcDbEntity
8
0
100
AcDbSpline
70
0
71
3
72
8
73
4
74
0
42
0.000000001
43
0.0000000001
44
0.0000000001
40
0
40
0
40
0
40
0
40
1
40
1
40
1
40
1
10
-158.72700002535376
20
-158.70599997141363
30
0
10
-158.82900002535376
20
-159.10799997141365
30
0
10
-158.63000002535375
20
-159.52399997141367
30
0
10
-158.25700002535376
20
-159.70099997141369
30
0
0
SPLINE
5
320
100
AcDbEntity
8
0
100
AcDbSpline
70
0
71
3
72
8
73
4
74
0
42
0.000000001
43
0.0000000001
44
0.0000000001
40
0
40
0
40
0
40
0
40
1
40
1
40
1
40
1
10
-157.84200002535377
20
-158.05099997141366
30
5.5511151231257827e-16
10
-158.25500002535375
20
-158.03099997141368
30
0
10
-158.62600002535376
20
-158.30499997141368
30
0
10
-158.72700002535376
20
-158.70599997141363
30
0
0
SPLINE
5
321
100
AcDbEntity
8
0
100
AcDbSpline
70
0
71
3
72
10
73
6
74
0
42
0.000000001
43
0.0000000001
44
0.0000000001
40
0
40
0
40
0
40
0
40
0.11319101730148409
40
0.11319101730148409
40
0.2261121286298558
40
0.2261121286298558
40
0.2261121286298558
40
0.2261121286298558
10
-155.67100002535375
20
-157.54999997141365
30
5.5511151231257827e-16
10
-156.00119827831574
20
-157.73255670945608
30
5.5511151231257827e-16
10
-156.35516033257349
20
-157.86835339426548
30
5.5511151231257827e-16
10
-157.08942970138207
20
-158.03780286200166
30
5.5511151231257827e-16
10
-157.46610545383996
20
-158.07086230015943
30
5.5511151231257827e-16
10
-157.84200002535377
20
-158.05099997141366
30
5.5511151231257827e-16
0
SPLINE
5
322
100
AcDbEntity
8
0
100
AcDbSpline
70
0
71
3
72
8
73
4
74
0
42
0.000000001
43
0.0000000001
44
0.0000000001
40
0
40
0
40
0
40
0
40
1
40
1
40
1
40
1
10
-155.25900002535377
20
-156.84299997141366
30
0
10
-155.25700002535376
20
-157.13599997141364
30
5.5511151231257827e-16
10
-155.41500002535375
20
-157.40599997141368
30
5.5511151231257827e-16
10
-155.67100002535375
20
-157.54999997141365
30
5.5511151231257827e-16
0
SPLINE
5
323
100
AcDbEntity
8
0
100
AcDbSpline
70
0
71
3
72
8
73
4
74
0
42
0.000000001
43
0.0000000001
44
0.0000000001
40
0
40
0
40
0
40
0
40
1
40
1
40
1
40
1
10
-155.26200002535376
20
-156.70599997141363
30
0
10
-155.26100002535375
20
-156.75199997141365
30
0
10
-155.25900002535366
20
-156.79699997141364
30
0
10
-155.25900002535377
20
-156.84299997141366
30
0
0
SPLINE
5
324
100
AcDbEntity
8
0
100
AcDbSpline
70
0
71
3
72
8
73
4
74
0
42
0.000000001
43
0.0000000001
44
0.0000000001
40
0
40
0
40
0
40
0
40
1
40
1
40
1
40
1
10
-155.69600002535375
20
-156.01299997141368
30
0
10
-155.43500002535376
20
-156.14699997141366
30
0
10
-155.26800002535376
20
-156.41399997141366
30
0
10
-155.26200002535376
20
-156.70599997141363
30
0
0
ELLIPSE
5
325
100
AcDbEntity
8
0
100
AcDbEllipse
10
-157.52728289262174
20
-159.52127608564365
30
0
11
-3.9398026346863277
21
0.66667190363686557
31
0.0
40
0.98941383192192711
41
4.4020399814764328
42
4.9671890856012393
0
SPLINE
5
326
100
AcDbEntity
8
0
100
AcDbSpline
70
0
71
3
72
8
73
4
74
0
42
0.000000001
43
0.0000000001
44
0.0000000001
40
0
40
0
40
0
40
0
40
1
40
1
40
1
40
1
10
-158.78700002535376
20
-154.95299997141365
30
5.5511151231257827e-16
10
-158.67300002535376
20
-155.35199997141368
30
5.5511151231257827e-16
10
-158.29400002535377
20
-155.61299997141364
30
5.5511151231257827e-16
10
-157.88200002535376
20
-155.58099997141366
30
5.5511151231257827e-16
0
SPLINE
5
327
100
AcDbEntity
8
0
100
AcDbSpline
70
0
71
3
72
8
73
4
74
0
42
0.000000001
43
0.0000000001
44
0.0000000001
40
0
40
0
40
0
40
0
40
1
40
1
40
1
40
1
10
-158.34700002535376
20
-153.94499997141367
30
0
10
-158.71500002535376
20
-154.13199997141368
30
0
10
-158.90000002535376
20
-154.55499997141365
30
5.5511151231257827e-16
10
-158.78700002535376
20
-154.95299997141365
30
5.5511151231257827e-16
0
ELLIPSE
5
328
100
AcDbEntity
8
0
100
AcDbEllipse
10
-160.3525520557501
20
-150.16960533677886
30
0
11
2.9393268640728856
21
-3.1170335897883641
31
0.0
40
0.97023375184222782
41
6.0076180759294235
42
6.5504000796165771
0
SPLINE
5
329
100
AcDbEntity
8
0
100
AcDbSpline
70
0
71
3
72
8
73
4
74
0
42
0.000000001
43
0.0000000001
44
0.0000000001
40
0
40
0
40
0
40
0
40
1
40
1
40
1
40
1
10
-156.71600002535365
20
-151.60499997141363
30
0
10
-156.56600002535376
20
-151.85799997141368
30
0
10
-156.56700002535376
20
-152.17199997141367
30
0
10
-156.71900002535375
20
-152.42299997141367
30
0
0
SPLINE
5
330
100
AcDbEntity
8
0
100
AcDbSpline
70
0
71
3
72
10
73
6
74
0
42
0.000000001
43
0.0000000001
44
0.0000000001
40
0
40
0
40
0
40
0
40
0.0066642726799820938
40
0.0066642726799820938
40
0.013328482749731566
40
0.013328482749731566
40
0.013328482749731566
40
0.013328482749731566
10
-156.78500002535375
20
-151.49099997141366
30
0
10
-156.77291123230577
20
-151.50963686069599
30
0
10
-156.76111925289635
20
-151.52846101720218
30
0
10
-156.73811864039283
20
-151.56647211270968
30
0
10
-156.72691424979021
20
-151.58565202809439
30
0
10
-156.71600002535365
20
-151.60499997141363
30
0
0
SPLINE
5
331
100
AcDbEntity
8
0
100
AcDbSpline
70
0
71
3
72
14
73
10
74
0
42
0.000000001
43
0.0000000001
44
0.0000000001
40
0
40
0
40
0
40
0
40
0.021722705058956349
40
0.021722705058956349
40
0.043111155251253384
40
0.043111155251253384
40
0.064421187932861348
40
0.064421187932861348
40
0.08614703216240871
40
0.08614703216240871
40
0.08614703216240871
40
0.08614703216240871
10
-157.50700002535376
20
-151.10599997141367
30
0
10
-157.43468635855166
20
-151.10228522825602
30
0
10
-157.36231528565708
20
-151.10846208732278
30
0
10
-157.22219105384534
20
-151.14002902617369
30
0
10
-157.15505483920822
20
-151.16497870949257
30
0
10
-157.02953995579006
20
-151.23190217645148
30
0
10
-156.97162001863006
20
-151.27355197799125
30
0
10
-156.86749721813695
20
-151.3721414470136
30
0
10
-156.82211927187717
20
-151.42880679677512
30
0
10
-156.78500002535375
20
-151.49099997141366
30
0
0
ELLIPSE
5
332
100
AcDbEntity
8
0
100
AcDbEllipse
10
-157.28595687340123
20
-155.19917709448774
30
0
11
1.8605090352600442
21
-3.6578236217563727
31
0.0
40
0.99312751531563359
41
2.7224510304870293
42
3.276454726831687
0
SPLINE
5
333
100
AcDbEntity
8
0
100
AcDbSpline
70
0
71
3
72
8
73
4
74
0
42
0.000000001
43
0.0000000001
44
0.0000000001
40
0
40
0
40
0
40
0
40
1
40
1
40
1
40
1
10
-160.71400002535376
20
-151.73299997141362
30
0
10
-160.41800002535376
20
-152.02299997141364
30
0
10
-159.95700002535375
20
-152.05999997141365
30
0
10
-159.61800002535375
20
-151.82299997141365
30
0
0
SPLINE
5
334
100
AcDbEntity
8
0
100
AcDbSpline
70
0
71
3
72
8
73
4
74
0
42
0.000000001
43
0.0000000001
44
0.0000000001
40
0
40
0
40
0
40
0
40
1
40
1
40
1
40
1
10
-160.83900002535376
20
-150.63999997141366
30
0
10
-161.06400002535378
20
-150.98699997141367
30
0
10
-161.01100002535375
20
-151.44599997141367
30
0
10
-160.71400002535376
20
-151.73299997141362
30
0
0
ELLIPSE
5
335
100
AcDbEntity
8
0
100
AcDbEllipse
10
-164.12633766225758
20
-148.49166215156842
30
0
11
-1.7789706422997624
21
-3.564451619495133
31
0.0
40
0.9855922031843678
41
1.4565236455441328
42
2.0235751198953889
0
SPLINE
5
336
100
AcDbEntity
8
0
100
AcDbSpline
70
0
71
3
72
8
73
4
74
0
42
0.000000001
43
0.0000000001
44
0.0000000001
40
0
40
0
40
0
40
0
40
1
40
1
40
1
40
1
10
-160.59500002535387
20
-147.79899997141365
30
0
10
-160.33900002535376
20
-147.94199997141368
30
0
10
-160.18300002535375
20
-148.21499997141368
30
0
10
-160.18900002535375
20
-148.50899997141366
30
0
0
SPLINE
5
337
100
AcDbEntity
8
0
100
AcDbSpline
70
0
71
3
72
8
73
4
74
0
42
0.000000001
43
0.0000000001
44
0.0000000001
40
0
40
0
40
0
40
0
40
1
40
1
40
1
40
1
10
-160.71200002535377
20
-147.73299997141368
30
0
10
-160.67400002535376
20
-147.75499997141364
30
0
10
-160.63400002535377
20
-147.77699997141366
30
0
10
-160.59500002535387
20
-147.79899997141365
30
0
0
SPLINE
5
338
100
AcDbEntity
8
0
100
AcDbSpline
70
0
71
3
72
8
73
4
74
0
42
0.000000001
43
0.0000000001
44
0.0000000001
40
0
40
0
40
0
40
0
40
1
40
1
40
1
40
1
10
-161.53100002535376
20
-147.76199997141367
30
0
10
-161.28400002535375
20
-147.60299997141368
30
0
10
-160.97000002535378
20
-147.59199997141368
30
0
10
-160.71200002535377
20
-147.73299997141368
30
0
0
ELLIPSE
5
339
100
AcDbEntity
8
0
100
AcDbEllipse
10
-159.25024880467413
20
-151.25056263034563
30
0
11
-2.9776196252218758
21
2.9211267817792868
31
0.0
40
0.9833103431472574
41
6.0636884269469045
42
6.6137700600777318
0
SPLINE
5
340
100
AcDbEntity
8
0
100
AcDbSpline
70
0
71
3
72
8
73
4
74
0
42
0.000000001
43
0.0000000001
44
0.0000000001
40
0
40
0
40
0
40
0
40
1
40
1
40
1
40
1
10
-163.99300002535375
20
-149.90899997141366
30
0
10
-163.59300002535377
20
-150.01099997141367
30
0
10
-163.17600002535374
20
-149.81199997141368
30
0
10
-162.99900002535378
20
-149.43799997141366
30
0
0
SPLINE
5
341
100
AcDbEntity
8
0
100
AcDbSpline
70
0
71
3
72
8
73
4
74
0
42
0.000000001
43
0.0000000001
44
0.0000000001
40
0
40
0
40
0
40
0
40
1
40
1
40
1
40
1
10
-164.64800002535378
20
-149.02399997141367
30
0
10
-164.66900002535374
20
-149.43699997141368
30
0
10
-164.39600002535374
20
-149.80799997141364
30
0
10
-163.99300002535375
20
-149.90899997141366
30
0
0
ELLIPSE
5
342
100
AcDbEntity
8
0
100
AcDbEllipse
10
-168.71258409868315
20
-148.8362579844493
30
5.5511151231257827e-16
11
-3.4308049676082386
21
-2.2019324623052943
31
0.0
40
0.99437504263561116
41
2.5221740236312575
42
3.0787271709336212
0
SPLINE
5
343
100
AcDbEntity
8
0
100
AcDbSpline
70
0
71
3
72
8
73
4
74
0
42
0.000000001
43
0.0000000001
44
0.0000000001
40
0
40
0
40
0
40
0
40
1
40
1
40
1
40
1
10
-165.85800002535376
20
-146.44099997141365
30
0
10
-165.56400002535378
20
-146.43899997141364
30
0
10
-165.29300002535376
20
-146.59699997141365
30
0
10
-165.15100002535377
20
-146.85299997141368
30
0
0
SPLINE
5
344
100
AcDbEntity
8
0
100
AcDbSpline
70
0
71
3
72
8
73
4
74
0
42
0.000000001
43
0.0000000001
44
0.0000000001
40
0
40
0
40
0
40
0
40
1
40
1
40
1
40
1
10
-165.99300002535375
20
-146.44299997141368
30
0
10
-165.94700002535376
20
-146.44299997141366
30
0
10
-165.90200002535374
20
-146.44099997141367
30
0
10
-165.85800002535376
20
-146.44099997141365
30
0
0
SPLINE
5
345
100
AcDbEntity
8
0
100
AcDbSpline
70
0
71
3
72
8
73
4
74
0
42
0.000000001
43
0.0000000001
44
0.0000000001
40
0
40
0
40
0
40
0
40
1
40
1
40
1
40
1
10
-166.68600002535374
20
-146.87699997141368
30
0
10
-166.55200002535378
20
-146.61599997141369
30
0
10
-166.28600002535376
20
-146.44999997141366
30
0
10
-165.99300002535375
20
-146.44299997141368
30
0
0
ELLIPSE
5
346
100
AcDbEntity
8
0
100
AcDbEllipse
10
-163.09939713128986
20
-148.72734496460805
30
0
11
-0.37334790169746918
21
-4.0285060319669457
31
0.0
40
0.99712899652414533
41
4.3295087181561209
42
4.8873516272318129
0
SPLINE
5
347
100
AcDbEntity
8
0
100
AcDbSpline
70
0
71
3
72
8
73
4
74
0
42
0.000000001
43
0.0000000001
44
0.0000000001
40
0
40
0
40
0
40
0
40
1
40
1
40
1
40
1
10
-167.74600002535377
20
-149.96799997141363
30
5.5511151231257827e-16
10
-167.34800002535377
20
-149.85499997141363
30
5.5511151231257827e-16
10
-167.08600002535377
20
-149.47599997141364
30
5.5511151231257827e-16
10
-167.12000002535376
20
-149.06199997141366
30
5.5511151231257827e-16
0
SPLINE
5
348
100
AcDbEntity
8
0
100
AcDbSpline
70
0
71
3
72
8
73
4
74
0
42
0.000000001
43
0.0000000001
44
0.0000000001
40
0
40
0
40
0
40
0
40
1
40
1
40
1
40
1
10
-168.75400002535375
20
-149.52899997141367
30
5.5511151231257827e-16
10
-168.56700002535376
20
-149.89699997141366
30
5.5511151231257827e-16
10
-168.14400002535376
20
-150.08199997141364
30
5.5511151231257827e-16
10
-167.74600002535377
20
-149.96799997141363
30
5.5511151231257827e-16
0
ELLIPSE
5
349
100
AcDbEntity
8
0
100
AcDbEllipse
10
-172.44333835583487
20
-151.44665864886798
30
0
11
-3.1602822050547328
21
-2.7063340540086633
31
0.0
40
0.98732003630521614
41
2.9099326216469272
42
3.4593211383712483
0
SPLINE
5
350
100
AcDbEntity
8
0
100
AcDbSpline
70
0
71
3
72
14
73
10
74
0
42
0.000000001
43
0.0000000001
44
0.0000000001
40
0
40
0
40
0
40
0
40
0.021720007765601016
40
0.021720007765601016
40
0.043056731049304457
40
0.043056731049304457
40
0.064343516501011319
40
0.064343516501011319
40
0.086057386252349155
40
0.086057386252349155
40
0.086057386252349155
40
0.086057386252349155
10
-171.09400002535378
20
-147.89599997141366
30
5.5511151231257827e-16
10
-171.03150725173191
20
-147.8594429338799
30
5.5511151231257827e-16
10
-170.96451688889775
20
-147.83148721766469
30
5.5511151231257827e-16
10
-170.82588630981866
20
-147.79461550242655
30
5.5511151231257827e-16
10
-170.75507065920834
20
-147.78557063493079
30
5.5511151231257827e-16
10
-170.61308894437531
20
-147.78643545594721
30
5.5511151231257827e-16
10
-170.5425521224721
20
-147.79629896909725
30
5.5511151231257827e-16
10
-170.40456012665504
20
-147.83481645002698
30
5.5511151231257827e-16
10
-170.33798151327517
20
-147.8636143120325
30
5.5511151231257827e-16
10
-170.27600002535377
20
-147.90099997141365
30
5.5511151231257827e-16
0
SPLINE
5
351
100
AcDbEntity
8
0
100
AcDbSpline
70
0
71
3
72
8
73
4
74
0
42
0.000000001
43
0.0000000001
44
0.0000000001
40
0
40
0
40
0
40
0
40
1
40
1
40
1
40
1
10
-171.21000002535379
20
-147.96699997141363
30
5.5511151231257827e-16
10
-171.17200002535378
20
-147.94299997141368
30
5.5511151231257827e-16
10
-171.13300002535374
20
-147.91999997141366
30
5.5511151231257827e-16
10
-171.09400002535378
20
-147.89599997141366
30
5.5511151231257827e-16
0
SPLINE
5
352
100
AcDbEntity
8
0
100
AcDbSpline
70
0
71
3
72
8
73
4
74
0
42
0.000000001
43
0.0000000001
44
0.0000000001
40
0
40
0
40
0
40
0
40
1
40
1
40
1
40
1
10
-171.59300002535375
20
-148.68899997141366
30
0
10
-171.60800002535379
20
-148.39699997141366
30
0
10
-171.4610000253538
20
-148.11799997141367
30
0
10
-171.21000002535379
20
-147.96699997141363
30
5.5511151231257827e-16
0
SPLINE
5
353
100
AcDbEntity
8
0
100
AcDbSpline
70
0
71
3
72
10
73
6
74
0
42
0.000000001
43
0.0000000001
44
0.0000000001
40
0
40
0
40
0
40
0
40
0.11325476648187077
40
0.11325476648187077
40
0.2261028058954174
40
0.2261028058954174
40
0.2261028058954174
40
0.2261028058954174
10
-170.87700002535374
20
-150.79899997141368
30
0
10
-171.09201552508918
20
-150.48869918061223
30
0
10
-171.26286421275688
20
-150.14975200192944
30
0
10
-171.50500672707082
20
-149.43618470425358
30
0
10
-171.57560389347753
20
-149.06475641993964
30
0
10
-171.59300002535375
20
-148.68899997141366
30
0
0
SPLINE
5
354
100
AcDbEntity
8
0
100
AcDbSpline
70
0
71
3
72
8
73
4
74
0
42
0.000000001
43
0.0000000001
44
0.0000000001
40
0
40
0
40
0
40
0
40
1
40
1
40
1
40
1
10
-170.96600002535376
20
-151.89599997141366
30
0
10
-170.67800002535375
20
-151.59899997141363
30
0
10
-170.64000002535377
20
-151.13899997141368
30
0
10
-170.87700002535374
20
-150.79899997141368
30
0
0
SPLINE
5
355
100
AcDbEntity
8
0
100
AcDbSpline
70
0
71
3
72
8
73
4
74
0
42
0.000000001
43
0.0000000001
44
0.0000000001
40
0
40
0
40
0
40
0
40
1
40
1
40
1
40
1
10
-172.05900002535375
20
-152.01999997141365
30
0
10
-171.71200002535375
20
-152.24599997141368
30
0
10
-171.25400002535375
20
-152.19299997141368
30
0
10
-170.96600002535376
20
-151.89599997141366
30
0
0
ELLIPSE
5
356
100
AcDbEntity
8
0
100
AcDbEllipse
10
-174.27984363355759
20
-155.59420176231848
30
0
11
-0.34738619230231366
21
-4.2121705056993051
31
0.0
40
0.9794815572601443
41
2.6594387818981464
42
3.2041344961399338
0
SPLINE
5
357
100
AcDbEntity
8
0
100
AcDbSpline
70
0
71
3
72
8
73
4
74
0
42
0.000000001
43
0.0000000001
44
0.0000000001
40
0
40
0
40
0
40
0
40
1
40
1
40
1
40
1
10
-174.90100002535374
20
-151.77699997141366
30
0
10
-174.75600002535376
20
-151.52099997141366
30
0
10
-174.4850000253538
20
-151.36499997141365
30
0
10
-174.19100002535373
20
-151.36899997141367
30
0
0
SPLINE
5
358
100
AcDbEntity
8
0
100
AcDbSpline
70
0
71
3
72
8
73
4
74
0
42
0.000000001
43
0.0000000001
44
0.0000000001
40
0
40
0
40
0
40
0
40
1
40
1
40
1
40
1
10
-174.96700002535377
20
-151.89399997141368
30
0
10
-174.94500002535375
20
-151.85399997141366
30
0
10
-174.92300002535376
20
-151.81599997141365
30
0
10
-174.90100002535374
20
-151.77699997141366
30
0
0
SPLINE
5
359
100
AcDbEntity
8
0
100
AcDbSpline
70
0
71
3
72
8
73
4
74
0
42
0.000000001
43
0.0000000001
44
0.0000000001
40
0
40
0
40
0
40
0
40
1
40
1
40
1
40
1
10
-174.93800002535377
20
-152.71299997141367
30
0
10
-175.09600002535376
20
-152.46599997141368
30
0
10
-175.10700002535376
20
-152.15199997141363
30
0
10
-174.96700002535377
20
-151.89399997141368
30
0
0
ELLIPSE
5
360
100
AcDbEntity
8
0
100
AcDbEllipse
10
-174.18129289369
20
-151.96955228221444
30
0
11
1.0964387634212531
21
-1.9089541001105843
31
0.0
40
0.46975592862409216
41
4.8343356495427887
42
5.0464194654533072
0
LINE
5
361
100
AcDbEntity
8
0
100
AcDbLine
10
-174.66900002535374
20
-153.08199997141367
30
0
11
-176.13563364089856
21
-153.10525238495072
31
0
0
LINE
5
362
100
AcDbEntity
8
0
100
AcDbLine
10
-176.13563364089856
20
-153.10525238495072
30
0
11
-176.13563364089856
21
-153.124775340658
31
0
0
CIRCLE
5
363
100
AcDbEntity
8
0
100
AcDbCircle
10
-165.75960012836117
20
-156.94199698701618
30
0
40
1.3200000000000001
210
0
220
0
230
1
0
LWPOLYLINE
5
364
100
AcDbEntity
8
0
100
AcDbPolyline
90
8
70
1
43
0.0
10
-185.42027495690513
20
-180.41579997141469
42
1.7043127167855228
10
-185.54161007963046
20
-169.94099997141467
42
-0.13102830974487686
10
-187.53310173163399
20
-170.47199997141468
10
-188.3490000253534
20
-170.47199997141468
10
-262.62655351313737
20
-171.9309715587903
42
0.40847287561130674
10
-266.54800002535342
20
-175.93020015310157
42
0.41419890448439961
10
-262.54800003036263
20
-179.9299999714147
10
-187.33087652709196
20
-179.92999997141467
42
-0.12514177577097521
0
CIRCLE
5
365
100
AcDbEntity
8
0
100
AcDbCircle
10
-182.55437260162506
20
-175.14449997141466
30
-7.6975623650655235e-47
40
1.3500000000000001
210
0
220
0
230
1
0
CIRCLE
5
366
100
AcDbEntity
8
0
100
AcDbCircle
10
-262.54800003036269
20
-175.9299999714147
30
5.5511151231257827e-16
40
1.3499999999999983
210
-4.5281328730371199e-34
220
6.2324402199394841e-34
230
1
0
LWPOLYLINE
5
367
100
AcDbEntity
8
0
100
AcDbPolyline
90
14
70
1
43
0.0
10
-165.86121443337018
20
-193.56806942208203
42
0.99999999999999989
10
-165.73578665350223
20
-185.56905274051189
10
-194.96607815441968
20
-185.11071008243238
42
-0.15496002466927289
10
-197.26197312827605
20
-184.34183081779483
42
0.29191542910629048
10
-203.70517379469075
20
-183.93807869859671
42
-0.13102830974487495
10
-205.70474593177755
20
-184.43778988376889
10
-206.52054393951829
20
-184.42499784482149
10
-280.81184206228045
20
-184.71923152449139
42
0.40847287561130757
10
-284.79550836613919
20
-188.65648626316766
42
0.41419890448439228
10
-280.85871078175364
20
-192.71850833672653
10
-205.65083257645568
20
-193.89779793786008
42
-0.12514177577097624
10
-203.74808244941835
20
-194.41349353999354
42
0.30086026917974318
10
-197.14338034024775
20
-193.94487052729983
42
-0.16934270853767161
10
-194.64299572783784
20
-193.11675958337059
0
CIRCLE
5
368
100
AcDbEntity
8
0
100
AcDbCircle
10
-200.79988642396148
20
-189.18777443201603
30
4.4474804775934136e-47
40
1.3499999999999999
210
1.5163980635583272e-33
220
-1.5647110869794647e-33
230
1
0
CIRCLE
5
369
100
AcDbEntity
8
0
100
AcDbCircle
10
-280.7959968918197
20
-188.71899999594146
30
0
40
1.3499999999999983
210
0
220
-0
230
1
0
CIRCLE
5
370
100
AcDbEntity
8
0
100
AcDbCircle
10
-165.79850054343621
20
-189.56856108129696
30
0
40
1.3200000000000001
210
3.081109150537791e-33
220
-4.8313023421137373e-35
230
1
0
LWPOLYLINE
5
371
100
AcDbEntity
8
0
100
AcDbPolyline
90
8
70
1
43
0.0
10
-165.0921479631632
20
-142.86116814453226
10
-165.09214796316013
20
-103.86216814453221
42
0.41421356237308982
10
-168.09214796315987
20
-100.86216814453201
10
-222.09214796315987
20
-100.86216814452769
42
0.41421356237309503
10
-225.09214796316013
20
-103.86216814452746
10
-225.09214796316317
20
-142.86116814452751
42
0.41421356237309337
10
-222.09214796316346
20
-145.86116814452774
10
-168.09214796316343
20
-145.86116814453206
42
0.41421356237309503
0
LWPOLYLINE
5
372
100
AcDbEntity
8
0
100
AcDbPolyline
90
4
70
1
43
0.0
10
-219.0921479631601
20
-103.86116814452792
10
-219.09214796316058
20
-109.86116814452794
10
-222.09214796316064
20
-109.86116814452771
10
-222.09214796316022
20
-103.86116814452768
0
LWPOLYLINE
5
373
100
AcDbEntity
8
0
100
AcDbPolyline
90
4
70
1
43
0.0
10
-193.09314796316204
20
-127.66116814453001
10
-193.09314796316303
20
-140.06216814453001
10
-216.09214796316294
20
-140.06216814452819
10
-216.09214796316198
20
-127.66116814452818
0
LWPOLYLINE
5
374
100
AcDbEntity
8
0
100
AcDbPolyline
90
4
70
1
43
0.0
10
-174.59014796316265
20
-135.5121681445315
10
-174.59014796316279
20
-137.20516814453151
10
-176.91714796316285
20
-137.20516814453131
10
-176.91714796316273
20
-135.51216814453133
0
LWPOLYLINE
5
375
100
AcDbEntity
8
0
100
AcDbPolyline
90
4
70
1
43
0.0
10
-174.53614796316231
20
-130.27216814453146
10
-174.53614796316245
20
-131.96616814453145
10
-176.91714796316245
20
-131.96616814453131
10
-176.91714796316231
20
-130.27216814453132
0
LWPOLYLINE
5
376
100
AcDbEntity
8
0
100
AcDbPolyline
90
4
70
1
43
0.0
10
-168.09214796316115
20
-116.86116814453199
10
-168.09214796316161
20
-122.861168144532
10
-171.09214796316164
20
-122.86116814453177
10
-171.09214796316115
20
-116.86116814453173
0
LWPOLYLINE
5
377
100
AcDbEntity
8
0
100
AcDbPolyline
90
4
70
1
43
0.0
10
-168.09214796316013
20
-103.86116814453197
10
-168.09214796316058
20
-109.86116814453199
10
-171.09214796316058
20
-109.86116814453176
10
-171.09214796316013
20
-103.86116814453173
0
LWPOLYLINE
5
378
100
AcDbEntity
8
0
100
AcDbPolyline
90
4
70
1
43
0.0
10
-182.59314796316022
20
-103.86116814453081
10
-172.59314796316011
20
-103.8611681445316
10
-172.59314796316036
20
-106.86116814453163
10
-182.59314796316048
20
-106.86116814453084
0
LWPOLYLINE
5
379
100
AcDbEntity
8
0
100
AcDbPolyline
90
4
70
1
43
0.0
10
-217.59314796316008
20
-103.86116814452804
10
-202.59314796316011
20
-103.86116814452922
10
-202.59314796316039
20
-106.86116814452924
10
-217.59314796316033
20
-106.86116814452805
0
CIRCLE
5
380
100
AcDbEntity
8
0
100
AcDbCircle
10
-204.59314796316323
20
-143.29116814452911
30
0
40
1.3500000000000021
210
6.3170502175916838e-32
220
1.9567448234973815e-31
230
1
0
CIRCLE
5
381
100
AcDbEntity
8
0
100
AcDbCircle
10
-169.59314796316085
20
-113.36116814453186
30
0
40
1.3500000000000021
210
6.3170502175916838e-32
220
1.9567448234973815e-31
230
1
0
CIRCLE
5
382
100
AcDbEntity
8
0
100
AcDbCircle
10
-204.5931479631617
20
-124.29216814452909
30
0
40
1.3500000000000021
210
6.3170502175916838e-32
220
1.9567448234973815e-31
230
1
0
CIRCLE
5
383
100
AcDbEntity
8
0
100
AcDbCircle
10
-220.59309874936875
20
-113.36116814452781
30
0
40
1.3500000000000021
210
6.3170502175916838e-32
220
1.9567448234973815e-31
230
1
0
LWPOLYLINE
5
384
100
AcDbEntity
8
0
100
AcDbPolyline
90
4
70
1
43
0.0
10
-219.09214796316115
20
-116.86116814452794
10
-219.09214796316161
20
-122.86116814452795
10
-222.09214796316166
20
-122.86116814452771
10
-222.09214796316127
20
-116.86116814452768
0
LWPOLYLINE
5
385
100
AcDbEntity
8
0
100
AcDbPolyline
90
8
70
1
43
0.0
10
-9.2178838155220468
20
-180.29899997141442
10
-9.2178838155220468
20
-180.29799997141441
42
0.41421356237309503
10
-21.717883815522082
20
-167.79799997141441
10
-35.707794500802514
20
-167.79799997141441
42
0.41421356237309503
10
-48.207794500802514
20
-180.29799997141441
10
-48.207794500802557
20
-180.29899997141442
42
0.41421356237309503
10
-35.707794500802514
20
-192.79899997141442
10
-21.717883815522082
20
-192.79899997141442
42
0.41421356237309503
0
LWPOLYLINE
5
386
100
AcDbEntity
8
0
100
AcDbPolyline
90
8
70
1
43
0.0
10
-42.219000025353559
20
-182.79799997141441
10
-42.219000025353559
20
-177.79899997141442
10
-40.218100025353593
20
-177.79899997141442
10
-40.218100025353593
20
-174.19799997141442
10
-17.21860002535356
20
-174.19799997141442
10
-17.218600025353549
20
-186.39799997141441
10
-40.218100025353579
20
-186.39799997141441
10
-40.218100025353593
20
-182.79799997141441
0
CIRCLE
5
387
100
AcDbEntity
8
0
100
AcDbCircle
10
-28.733299336818732
20
-170.79749997141442
30
0
40
1.3
210
1.5407439555097887e-33
220
1.5407439555097887e-33
230
1
0
CIRCLE
5
388
100
AcDbEntity
8
0
100
AcDbCircle
10
-28.733299336818732
20
-189.79849997141443
30
0
40
1.3
210
1.5407439555097887e-33
220
1.5407439555097887e-33
230
1
0
LWPOLYLINE
5
389
100
AcDbEntity
8
0
100
AcDbPolyline
90
10
70
1
43
0.0
10
-235.08236966690728
20
-144.90741949604845
10
-235.08236966690885
20
-105.09846015943896
42
0.41421356237309681
10
-238.08236966690896
20
-102.09846015943904
10
-292.08236966690896
20
-102.09846015944112
42
0.41421356237309503
10
-295.0823696669089
20
-105.09846015944129
10
-295.08236966690731
20
-144.09847961721894
42
0.3616223258277364
10
-292.62781554015237
20
-147.04847771880475
10
-244.29973066744543
20
-155.98419684400807
10
-243.81959147083595
20
-155.98419684400798
42
0.26722815284366158
10
-240.36088527817236
20
-153.99351301445739
0
LWPOLYLINE
5
390
100
AcDbEntity
8
0
100
AcDbPolyline
90
4
70
1
43
0.0
10
-292.08136966690813
20
-124.09856015944121
10
-292.08136966690836
20
-118.0975601594412
10
-289.08136966690836
20
-118.0975601594411
10
-289.08136966690807
20
-124.09856015944108
0
CIRCLE
5
391
100
AcDbEntity
8
0
100
AcDbCircle
10
-243.83136966690699
20
-151.93256015943936
30
0
40
1.3590000000000129
210
-2.804153999027162e-31
220
-1.6732479356836414e-30
230
1
0
CIRCLE
5
392
100
AcDbEntity
8
0
100
AcDbCircle
10
-274.58336966690729
20
-144.52856015944056
30
0
40
1.3590000000000129
210
-2.804153999027162e-31
220
-1.6732479356836414e-30
230
1
0
CIRCLE
5
393
100
AcDbEntity
8
0
100
AcDbCircle
10
-274.58336966690803
20
-125.52756015944054
30
0
40
1.3590000000000129
210
-2.804153999027162e-31
220
-1.6732479356836414e-30
230
1
0
CIRCLE
5
394
100
AcDbEntity
8
0
100
AcDbCircle
10
-290.58236966690851
20
-114.59856015944118
30
0
40
1.3590000000000129
210
-2.804153999027162e-31
220
-1.6732479356836414e-30
230
1
0
CIRCLE
5
395
100
AcDbEntity
8
0
100
AcDbCircle
10
-239.58236966690845
20
-114.59856015943919
30
0
40
1.3590000000000129
210
-2.804153999027162e-31
220
-1.6732479356836414e-30
230
1
0
LWPOLYLINE
5
396
100
AcDbEntity
8
0
100
AcDbPolyline
90
4
70
1
43
0.0
10
-263.08236966690743
20
-141.29756015944017
10
-286.08236966690743
20
-141.29756015944108
10
-286.08236966690794
20
-128.89856015944093
10
-263.08236966690794
20
-128.89856015943997
0
LWPOLYLINE
5
397
100
AcDbEntity
8
0
100
AcDbPolyline
90
4
70
1
43
0.0
10
-246.07436966690773
20
-133.11456015943938
10
-248.40336966690774
20
-133.11456015943946
10
-248.40336966690782
20
-131.42156015943951
10
-246.07436966690781
20
-131.42156015943942
0
LWPOLYLINE
5
398
100
AcDbEntity
8
0
100
AcDbPolyline
90
4
70
1
43
0.0
10
-246.02236966690754
20
-138.35356015943935
10
-248.35136966690754
20
-138.35356015943944
10
-248.3513696669076
20
-136.66056015943948
10
-246.02236966690757
20
-136.6605601594394
0
LWPOLYLINE
5
399
100
AcDbEntity
8
0
100
AcDbPolyline
90
4
70
1
43
0.0
10
-242.58336966690874
20
-108.09856015943927
10
-255.58236966690873
20
-108.09856015943978
10
-255.58236966690885
20
-105.0985601594398
10
-242.58336966690882
20
-105.09856015943922
0
LWPOLYLINE
5
400
100
AcDbEntity
8
0
100
AcDbPolyline
90
4
70
1
43
0.0
10
-277.58236966690873
20
-108.09856015944069
10
-287.58236966690873
20
-108.09856015944108
10
-287.58236966690885
20
-105.09856015944101
10
-277.58236966690885
20
-105.09856015944054
0
LWPOLYLINE
5
401
100
AcDbEntity
8
0
100
AcDbPolyline
90
4
70
1
43
0.0
10
-238.08236966690811
20
-124.09856015943907
10
-241.08236966690811
20
-124.09856015943919
10
-241.08236966690833
20
-118.09756015943921
10
-238.08236966690831
20
-118.09756015943911
0
LWPOLYLINE
5
402
100
AcDbEntity
8
0
100
AcDbPolyline
90
4
70
1
43
0.0
10
-238.08236966690859
20
-111.09956015943914
10
-241.08236966690862
20
-111.09956015943925
10
-241.08236966690885
20
-105.09856015943922
10
-238.08236966690882
20
-105.09856015943903
0
LWPOLYLINE
5
403
100
AcDbEntity
8
0
100
AcDbPolyline
90
4
70
1
43
0.0
10
-289.08136966690859
20
-111.09956015944113
10
-292.08136966690864
20
-111.09956015944124
10
-292.08136966690887
20
-105.09856015944121
10
-289.08136966690881
20
-105.09856015944102
0
LWPOLYLINE
5
404
100
AcDbEntity
8
0
100
AcDbPolyline
90
6
70
1
43
0.0
10
-259.67640376769612
20
-165.36380259295825
42
2.2524172750011626
10
-259.67719076240547
20
-157.29767384437517
42
-0.18590894923609644
10
-262.36025731608873
20
-158.33099997141471
10
-278.02323539864472
20
-158.33099997141463
42
0.99999999999999989
10
-278.02323539864472
20
-164.33099997141466
10
-262.35889136641515
20
-164.33099997141468
42
-0.18585847970058589
0
LWPOLYLINE
5
405
100
AcDbEntity
8
0
100
AcDbPolyline
90
4
70
1
43
0.0
10
-271.0290000253537
20
-160.33073334696661
42
0.99999999999999989
10
-271.0290000253537
20
-162.33073334696661
10
-266.02900002535375
20
-162.33073334696661
42
0.99999999999999989
10
-266.02900002535375
20
-160.33073334696661
0
CIRCLE
5
406
100
AcDbEntity
8
0
100
AcDbCircle
10
-278.01900002535376
20
-161.33099997141466
30
0
40
1.3
210
0
220
-0
230
1
0
CIRCLE
5
407
100
AcDbEntity
8
0
100
AcDbCircle
10
-256.03000002535367
20
-161.33038240855967
30
2.3947971802426073e-47
40
3.5000000000000004
210
2.9255977784764842e-48
220
1.5407439555097887e-33
230
1
0
LWPOLYLINE
5
408
100
AcDbEntity
8
0
100
AcDbPolyline
90
6
70
1
43
0.0
10
-315.24426438367652
20
-173.55897427598163
42
0.99999999999999989
10
-307.24426438367652
20
-173.55897427598163
10
-307.24426438367652
20
-146.30172707348572
42
-0.12681269647643006
10
-305.99814857005197
20
-141.46752479683997
42
1.6949587804831869
10
-316.49224656843751
20
-141.46954985077818
42
-0.12691073467463937
10
-315.24426438367652
20
-146.30713025442412
0
CIRCLE
5
409
100
AcDbEntity
8
0
100
AcDbCircle
10
-311.24444711274435
20
-173.56733937150909
30
0
40
1.3
210
1.5407439555097875e-33
220
1.5407439555097897e-33
230
1
0
LWPOLYLINE
5
410
100
AcDbEntity
8
0
100
AcDbPolyline
90
4
70
1
43
0.0
10
-312.24426438367652
20
-153.56910599595722
42
0.99999999999999989
10
-310.24479763257267
20
-153.56910599595722
10
-310.24479763257267
20
-148.56757274706109
42
0.99999999999999989
10
-312.24426438367652
20
-148.56757274706109
0
CIRCLE
5
411
100
AcDbEntity
8
0
100
AcDbCircle
10
-311.24476438367662
20
-138.56861854937171
30
0
40
3.5499999999999998
210
0
220
0
230
1
0
LWPOLYLINE
5
412
100
AcDbEntity
8
0
100
AcDbPolyline
90
12
70
1
43
0.0
10
-306.34460545713711
20
-122.48583939691798
10
-306.35166547576142
20
-119.48638152167456
10
-300.35034782349049
20
-119.4722558309138
10
-300.35599814286081
20
-117.07171024027403
10
-306.35642919877807
20
-117.08583384419532
10
-306.36349094013343
20
-114.08564406452012
10
-318.36446356908687
20
-114.11389153198458
10
-318.35740772464811
20
-117.1115759991615
10
-324.3564220540265
20
-117.12569626844174
10
-324.35077342189948
20
-119.52552482478674
10
-318.35185884854042
20
-119.51140479030882
10
-318.34479124527041
20
-122.51408501188718
0
CIRCLE
5
413
100
AcDbEntity
8
0
100
AcDbCircle
10
-312.3534244430785
20
-118.2988629294084
30
0
40
1.3000000000000003
210
3.6265389751936649e-36
220
-1.5407396875056514e-33
230
1
0
LWPOLYLINE
5
414
100
AcDbEntity
8
0
100
AcDbPolyline
90
18
70
1
43
0.0
10
-304.53240232158987
20
-77.249703101396065
42
1.9775189910046391
10
-310.92162919662343
20
-76.43053067512183
10
-307.64255127591372
20
-88.667494661438795
42
-0.26791479800233159
10
-309.32419259956157
20
-94.94544729921725
10
-309.46216688406491
20
-95.083461077218317
10
-307.34217468929398
20
-97.202846611708196
10
-311.58352308005902
20
-101.44540906077678
10
-309.88634051671221
20
-103.14210595579522
10
-305.64506265420528
20
-98.899614055173188
10
-303.52153741235958
20
-101.02253162571563
10
-295.03731552340372
20
-92.535881184967906
10
-297.15856188995298
20
-90.415241837595403
10
-292.91558503252531
20
-86.171050455726288
10
-294.61327468929403
20
-84.473846611708282
10
-298.85562471641072
20
-88.717410983840196
10
-300.97738869302754
20
-86.596254174524262
42
-0.51191922974731741
10
-303.25277867964434
20
-85.732750834063097
10
-305.0172542169185
20
-79.148026674874018
42
-0.26167812655127703
0
CIRCLE
5
415
100
AcDbEntity
8
0
100
AcDbCircle
10
-302.24966186283626
20
-93.808177465463402
30
-5.5511151231257827e-16
40
1.3000000000000003
210
1.089314583262063e-33
220
1.0896263924541052e-33
230
1
0
CIRCLE
5
416
100
AcDbEntity
8
0
100
AcDbCircle
10
-307.42559412861806
20
-74.489145199681616
30
2.9934964753032591e-48
40
1.3000000000000003
210
-1.4882385008765642e-33
220
-3.9879581360468991e-34
230
1
0
LWPOLYLINE
5
417
100
AcDbEntity
8
0
100
AcDbPolyline
90
8
70
1
43
0.0
10
-291.11100961597805
20
-60.85034622583629
10
-291.08477604529082
20
-16.850708506903864
42
0.41421356237309659
10
-294.082986845113
20
-13.848920373169271
10
-338.08292801056177
20
-13.822686621560438
42
0.41421356237309503
10
-341.08471614429629
20
-16.820897421382604
10
-341.11094971498352
20
-60.820535140315016
42
0.41421356237309681
10
-338.11273891516134
20
-63.822323274049609
10
-294.11279774971257
20
-63.84855702565855
42
0.41421356237309076
0
CIRCLE
5
418
100
AcDbEntity
8
0
100
AcDbCircle
10
-338.08471667751797
20
-16.822686088338806
30
0
40
1.3500000000000001
210
-4.6224147701581139e-32
220
-3.0539285853021368e-33
230
1
0
CIRCLE
5
419
100
AcDbEntity
8
0
100
AcDbCircle
10
-294.11100908275637
20
-60.848557558880081
30
0
40
1.3500000000000001
210
-4.6224147701581139e-32
220
-3.0539285853021368e-33
230
1
0
CIRCLE
5
420
100
AcDbEntity
8
0
100
AcDbCircle
10
-338.1109502482052
20
-60.822323807271239
30
0
40
1.3500000000000001
210
-4.6224147701581139e-32
220
-3.0539285853021368e-33
230
1
0
CIRCLE
5
421
100
AcDbEntity
8
0
100
AcDbCircle
10
-294.0847755120692
20
-16.848919839947644
30
0
40
1.3500000000000001
210
-4.6224147701581139e-32
220
-3.0539285853021368e-33
230
1
0
CIRCLE
5
422
100
AcDbEntity
8
0
100
AcDbCircle
10
-316.11876097237399
20
-29.316353368289001
30
0
40
1.2999999999999998
210
3.6971417978234775e-32
220
-1.0807252794009543e-32
230
1
0
CIRCLE
5
423
100
AcDbEntity
8
0
100
AcDbCircle
10
-316.09804274368531
20
-48.316807553518331
30
0
40
1.2999999999999998
210
3.6971417978234775e-32
220
-1.0807252794009543e-32
230
1
0
LWPOLYLINE
5
424
100
AcDbEntity
8
0
100
AcDbPolyline
90
4
70
1
43
0.0
10
-304.60168380375637
20
-44.942477754947234
10
-327.60238276921632
20
-44.92876422243998
10
-327.59510860645639
20
-32.728346293933875
10
-304.5944096409965
20
-32.742059826441128
0
ENDSEC
0
SECTION
2
OBJECTS
0
DICTIONARY
5
C
100
AcDbDictionary
3
ACAD_GROUP
350
D
3
ACAD_MLINESTYLE
350
17
0
DICTIONARY
5
D
100
AcDbDictionary
0
DICTIONARY
5
1A
330
C
100
AcDbDictionary
0
DICTIONARY
5
17
100
AcDbDictionary
0
ENDSEC
0
EOF
